<?xml version="1.0" encoding="us-ascii" standalone="no"?><svg xmlns="http://www.w3.org/2000/svg" xmlns:xlink="http://www.w3.org/1999/xlink" contentStyleType="text/css" height="269px" preserveAspectRatio="none" style="width:228px;height:269px;background:#FFFFFF;" version="1.1" viewBox="0 0 228 269" width="228px" zoomAndPan="magnify"><defs/><g><line style="stroke:#181818;stroke-width:0.5;stroke-dasharray:5.0,5.0;" x1="27" x2="27" y1="81.2969" y2="188.6953"/><line style="stroke:#181818;stroke-width:0.5;stroke-dasharray:5.0,5.0;" x1="102.5" x2="102.5" y1="81.2969" y2="188.6953"/><line style="stroke:#181818;stroke-width:0.5;stroke-dasharray:5.0,5.0;" x1="191.5" x2="191.5" y1="81.2969" y2="188.6953"/><text fill="#000000" font-family="sans-serif" font-size="14" lengthAdjust="spacing" textLength="39" x="5" y="77.9951">Client</text><ellipse cx="27.5" cy="13.5" fill="#E2E2F0" rx="8" ry="8" style="stroke:#181818;stroke-width:0.5;"/><path d="M27.5,21.5 L27.5,48.5 M14.5,29.5 L40.5,29.5 M27.5,48.5 L14.5,63.5 M27.5,48.5 L40.5,63.5 " fill="none" style="stroke:#181818;stroke-width:0.5;"/><text fill="#000000" font-family="sans-serif" font-size="14" lengthAdjust="spacing" textLength="39" x="5" y="200.6904">Client</text><ellipse cx="27.5" cy="212.4922" fill="#E2E2F0" rx="8" ry="8" style="stroke:#181818;stroke-width:0.5;"/><path d="M27.5,220.4922 L27.5,247.4922 M14.5,228.4922 L40.5,228.4922 M27.5,247.4922 L14.5,262.4922 M27.5,247.4922 L40.5,262.4922 " fill="none" style="stroke:#181818;stroke-width:0.5;"/><rect fill="#E2E2F0" height="30.2969" rx="2.5" ry="2.5" style="stroke:#181818;stroke-width:0.5;" width="56" x="74.5" y="50"/><text fill="#000000" font-family="sans-serif" font-size="14" lengthAdjust="spacing" textLength="42" x="81.5" y="69.9951">cache</text><rect fill="#E2E2F0" height="30.2969" rx="2.5" ry="2.5" style="stroke:#181818;stroke-width:0.5;" width="56" x="74.5" y="187.6953"/><text fill="#000000" font-family="sans-serif" font-size="14" lengthAdjust="spacing" textLength="42" x="81.5" y="207.6904">cache</text><text fill="#000000" font-family="sans-serif" font-size="14" lengthAdjust="spacing" textLength="66" x="155.5" y="77.9951">Database</text><path d="M173.5,29 C173.5,19 191.5,19 191.5,19 C191.5,19 209.5,19 209.5,29 L209.5,55 C209.5,65 191.5,65 191.5,65 C191.5,65 173.5,65 173.5,55 L173.5,29 " fill="#E2E2F0" style="stroke:#181818;stroke-width:1.5;"/><path d="M173.5,29 C173.5,39 191.5,39 191.5,39 C191.5,39 209.5,39 209.5,29 " fill="none" style="stroke:#181818;stroke-width:1.5;"/><text fill="#000000" font-family="sans-serif" font-size="14" lengthAdjust="spacing" textLength="66" x="155.5" y="200.6904">Database</text><path d="M173.5,213.9922 C173.5,203.9922 191.5,203.9922 191.5,203.9922 C191.5,203.9922 209.5,203.9922 209.5,213.9922 L209.5,239.9922 C209.5,249.9922 191.5,249.9922 191.5,249.9922 C191.5,249.9922 173.5,249.9922 173.5,239.9922 L173.5,213.9922 " fill="#E2E2F0" style="stroke:#181818;stroke-width:1.5;"/><path d="M173.5,213.9922 C173.5,223.9922 191.5,223.9922 191.5,223.9922 C191.5,223.9922 209.5,223.9922 209.5,213.9922 " fill="none" style="stroke:#181818;stroke-width:1.5;"/><polygon fill="#181818" points="90.5,108.4297,100.5,112.4297,90.5,116.4297,94.5,112.4297" style="stroke:#181818;stroke-width:1.0;"/><line style="stroke:#181818;stroke-width:1.0;" x1="27.5" x2="96.5" y1="112.4297" y2="112.4297"/><text fill="#000000" font-family="sans-serif" font-size="13" lengthAdjust="spacing" textLength="51" x="34.5" y="107.3638">Put &#25968;&#25454;</text><polygon fill="#181818" points="179.5,137.5625,189.5,141.5625,179.5,145.5625,183.5,141.5625" style="stroke:#181818;stroke-width:1.0;"/><line style="stroke:#181818;stroke-width:1.0;" x1="102.5" x2="185.5" y1="141.5625" y2="141.5625"/><text fill="#000000" font-family="sans-serif" font-size="13" lengthAdjust="spacing" textLength="65" x="109.5" y="136.4966">&#20889;&#20837;&#25968;&#25454;&#24211;</text><polygon fill="#181818" points="38.5,166.6953,28.5,170.6953,38.5,174.6953,34.5,170.6953" style="stroke:#181818;stroke-width:1.0;"/><line style="stroke:#181818;stroke-width:1.0;" x1="32.5" x2="101.5" y1="170.6953" y2="170.6953"/><text fill="#000000" font-family="sans-serif" font-size="13" lengthAdjust="spacing" textLength="26" x="44.5" y="165.6294">&#36820;&#22238;</text></g></svg>