<?xml version="1.0" encoding="us-ascii" standalone="no"?><svg xmlns="http://www.w3.org/2000/svg" xmlns:xlink="http://www.w3.org/1999/xlink" contentStyleType="text/css" height="1396px" preserveAspectRatio="none" style="width:464px;height:1396px;background:#FFFFFF;" version="1.1" viewBox="0 0 464 1396" width="464px" zoomAndPan="magnify"><defs/><g><rect fill="#FFFFFF" height="59.1328" style="stroke:#181818;stroke-width:1.0;" width="10" x="41.5" y="222.0938"/><rect fill="#FFFFFF" height="30" style="stroke:#181818;stroke-width:1.0;" width="10" x="41.5" y="397.7578"/><rect fill="#FFFFFF" height="30" style="stroke:#181818;stroke-width:1.0;" width="10" x="41.5" y="603.4219"/><rect fill="#FFFFFF" height="30" style="stroke:#181818;stroke-width:1.0;" width="10" x="41.5" y="664.5547"/><rect fill="#FFFFFF" height="59.1328" style="stroke:#181818;stroke-width:1.0;" width="10" x="41.5" y="861.2188"/><rect fill="#FFFFFF" height="30" style="stroke:#181818;stroke-width:1.0;" width="10" x="41.5" y="1036.8828"/><rect fill="#FFFFFF" height="125.5313" style="stroke:#181818;stroke-width:1.0;" width="10" x="41.5" y="1226.5469"/><rect fill="#FFFFFF" height="9" style="stroke:#181818;stroke-width:1.0;" width="10" x="46.5" y="1343.0781"/><rect fill="#FFFFFF" height="29.1328" style="stroke:#181818;stroke-width:1.0;" width="10" x="126.5" y="139.6953"/><rect fill="#FFFFFF" height="29.1328" style="stroke:#181818;stroke-width:1.0;" width="10" x="126.5" y="339.4922"/><rect fill="#FFFFFF" height="29.1328" style="stroke:#181818;stroke-width:1.0;" width="10" x="126.5" y="545.1563"/><rect fill="#FFFFFF" height="29.1328" style="stroke:#181818;stroke-width:1.0;" width="10" x="126.5" y="802.9531"/><rect fill="#FFFFFF" height="29.1328" style="stroke:#181818;stroke-width:1.0;" width="10" x="126.5" y="978.6172"/><rect fill="#FFFFFF" height="29.1328" style="stroke:#181818;stroke-width:1.0;" width="10" x="126.5" y="1168.2813"/><rect fill="#FFFFFF" height="29.1328" style="stroke:#181818;stroke-width:1.0;" width="10" x="126.5" y="1284.8125"/><rect fill="#FFFFFF" height="30" style="stroke:#181818;stroke-width:1.0;" width="10" x="278.5" y="251.2266"/><rect fill="#FFFFFF" height="30" style="stroke:#181818;stroke-width:1.0;" width="10" x="278.5" y="456.8906"/><rect fill="#FFFFFF" height="30" style="stroke:#181818;stroke-width:1.0;" width="10" x="278.5" y="890.3516"/><rect fill="#FFFFFF" height="1241.5156" style="stroke:#181818;stroke-width:1.0;" width="10" x="392.5" y="110.5625"/><rect fill="#FFFFFF" height="578.2578" style="stroke:#181818;stroke-width:1.0;" width="10" x="397.5" y="773.8203"/><rect fill="#FFFFFF" height="402.5938" style="stroke:#181818;stroke-width:1.0;" width="10" x="402.5" y="949.4844"/><rect fill="#FFFFFF" height="203.9297" style="stroke:#181818;stroke-width:1.0;" width="10" x="407.5" y="1139.1484"/><rect fill="none" height="518.7266" style="stroke:#000000;stroke-width:1.5;" width="437" x="10" y="183.8281"/><line style="stroke:#181818;stroke-width:0.5;stroke-dasharray:5.0,5.0;" x1="46" x2="46" y1="36.2969" y2="1361.0781"/><line style="stroke:#181818;stroke-width:0.5;stroke-dasharray:5.0,5.0;" x1="131" x2="131" y1="36.2969" y2="1361.0781"/><line style="stroke:#181818;stroke-width:0.5;stroke-dasharray:5.0,5.0;" x1="283" x2="283" y1="36.2969" y2="1361.0781"/><line style="stroke:#181818;stroke-width:0.5;stroke-dasharray:5.0,5.0;" x1="397" x2="397" y1="36.2969" y2="1361.0781"/><rect fill="#E2E2F0" height="30.2969" rx="2.5" ry="2.5" style="stroke:#181818;stroke-width:0.5;" width="53" x="20" y="5"/><text fill="#000000" font-family="sans-serif" font-size="14" lengthAdjust="spacing" textLength="39" x="27" y="24.9951">Client</text><rect fill="#E2E2F0" height="30.2969" rx="2.5" ry="2.5" style="stroke:#181818;stroke-width:0.5;" width="53" x="20" y="1360.0781"/><text fill="#000000" font-family="sans-serif" font-size="14" lengthAdjust="spacing" textLength="39" x="27" y="1380.0732">Client</text><rect fill="#E2E2F0" height="30.2969" rx="2.5" ry="2.5" style="stroke:#181818;stroke-width:0.5;" width="97" x="83" y="5"/><text fill="#000000" font-family="sans-serif" font-size="14" lengthAdjust="spacing" textLength="83" x="90" y="24.9951">RedisServer</text><rect fill="#E2E2F0" height="30.2969" rx="2.5" ry="2.5" style="stroke:#181818;stroke-width:0.5;" width="97" x="83" y="1360.0781"/><text fill="#000000" font-family="sans-serif" font-size="14" lengthAdjust="spacing" textLength="83" x="90" y="1380.0732">RedisServer</text><rect fill="#E2E2F0" height="30.2969" rx="2.5" ry="2.5" style="stroke:#181818;stroke-width:0.5;" width="91" x="238" y="5"/><text fill="#000000" font-family="sans-serif" font-size="14" lengthAdjust="spacing" textLength="77" x="245" y="24.9951">LockObject</text><rect fill="#E2E2F0" height="30.2969" rx="2.5" ry="2.5" style="stroke:#181818;stroke-width:0.5;" width="91" x="238" y="1360.0781"/><text fill="#000000" font-family="sans-serif" font-size="14" lengthAdjust="spacing" textLength="77" x="245" y="1380.0732">LockObject</text><rect fill="#E2E2F0" height="30.2969" rx="2.5" ry="2.5" style="stroke:#181818;stroke-width:0.5;" width="79" x="358" y="5"/><text fill="#000000" font-family="sans-serif" font-size="14" lengthAdjust="spacing" textLength="65" x="365" y="24.9951">Redisson</text><rect fill="#E2E2F0" height="30.2969" rx="2.5" ry="2.5" style="stroke:#181818;stroke-width:0.5;" width="79" x="358" y="1360.0781"/><text fill="#000000" font-family="sans-serif" font-size="14" lengthAdjust="spacing" textLength="65" x="365" y="1380.0732">Redisson</text><rect fill="#FFFFFF" height="59.1328" style="stroke:#181818;stroke-width:1.0;" width="10" x="41.5" y="222.0938"/><rect fill="#FFFFFF" height="30" style="stroke:#181818;stroke-width:1.0;" width="10" x="41.5" y="397.7578"/><rect fill="#FFFFFF" height="30" style="stroke:#181818;stroke-width:1.0;" width="10" x="41.5" y="603.4219"/><rect fill="#FFFFFF" height="30" style="stroke:#181818;stroke-width:1.0;" width="10" x="41.5" y="664.5547"/><rect fill="#FFFFFF" height="59.1328" style="stroke:#181818;stroke-width:1.0;" width="10" x="41.5" y="861.2188"/><rect fill="#FFFFFF" height="30" style="stroke:#181818;stroke-width:1.0;" width="10" x="41.5" y="1036.8828"/><rect fill="#FFFFFF" height="125.5313" style="stroke:#181818;stroke-width:1.0;" width="10" x="41.5" y="1226.5469"/><rect fill="#FFFFFF" height="9" style="stroke:#181818;stroke-width:1.0;" width="10" x="46.5" y="1343.0781"/><rect fill="#FFFFFF" height="29.1328" style="stroke:#181818;stroke-width:1.0;" width="10" x="126.5" y="139.6953"/><rect fill="#FFFFFF" height="29.1328" style="stroke:#181818;stroke-width:1.0;" width="10" x="126.5" y="339.4922"/><rect fill="#FFFFFF" height="29.1328" style="stroke:#181818;stroke-width:1.0;" width="10" x="126.5" y="545.1563"/><rect fill="#FFFFFF" height="29.1328" style="stroke:#181818;stroke-width:1.0;" width="10" x="126.5" y="802.9531"/><rect fill="#FFFFFF" height="29.1328" style="stroke:#181818;stroke-width:1.0;" width="10" x="126.5" y="978.6172"/><rect fill="#FFFFFF" height="29.1328" style="stroke:#181818;stroke-width:1.0;" width="10" x="126.5" y="1168.2813"/><rect fill="#FFFFFF" height="29.1328" style="stroke:#181818;stroke-width:1.0;" width="10" x="126.5" y="1284.8125"/><rect fill="#FFFFFF" height="30" style="stroke:#181818;stroke-width:1.0;" width="10" x="278.5" y="251.2266"/><rect fill="#FFFFFF" height="30" style="stroke:#181818;stroke-width:1.0;" width="10" x="278.5" y="456.8906"/><rect fill="#FFFFFF" height="30" style="stroke:#181818;stroke-width:1.0;" width="10" x="278.5" y="890.3516"/><rect fill="#FFFFFF" height="1241.5156" style="stroke:#181818;stroke-width:1.0;" width="10" x="392.5" y="110.5625"/><rect fill="#FFFFFF" height="578.2578" style="stroke:#181818;stroke-width:1.0;" width="10" x="397.5" y="773.8203"/><rect fill="#FFFFFF" height="402.5938" style="stroke:#181818;stroke-width:1.0;" width="10" x="402.5" y="949.4844"/><rect fill="#FFFFFF" height="203.9297" style="stroke:#181818;stroke-width:1.0;" width="10" x="407.5" y="1139.1484"/><rect fill="#EEEEEE" height="3" style="stroke:#EEEEEE;stroke-width:1.0;" width="457" x="0" y="66.8633"/><line style="stroke:#000000;stroke-width:1.0;" x1="0" x2="457" y1="66.8633" y2="66.8633"/><line style="stroke:#000000;stroke-width:1.0;" x1="0" x2="457" y1="69.8633" y2="69.8633"/><rect fill="#EEEEEE" height="23.1328" style="stroke:#000000;stroke-width:2.0;" width="89" x="184" y="56.2969"/><text fill="#000000" font-family="sans-serif" font-size="13" font-weight="bold" lengthAdjust="spacing" textLength="70" x="190" y="72.3638">&#33719;&#21462;&#38145;&#36807;&#31243;</text><polygon fill="#181818" points="380.5,106.5625,390.5,110.5625,380.5,114.5625,384.5,110.5625" style="stroke:#181818;stroke-width:1.0;"/><line style="stroke:#181818;stroke-width:1.0;" x1="46.5" x2="386.5" y1="110.5625" y2="110.5625"/><text fill="#000000" font-family="sans-serif" font-size="13" lengthAdjust="spacing" textLength="104" x="53.5" y="105.4966">&#35831;&#27714;&#33719;&#21462;&#20998;&#24067;&#24335;&#38145;</text><polygon fill="#181818" points="147.5,135.6953,137.5,139.6953,147.5,143.6953,143.5,139.6953" style="stroke:#181818;stroke-width:1.0;"/><line style="stroke:#181818;stroke-width:1.0;" x1="141.5" x2="391.5" y1="139.6953" y2="139.6953"/><text fill="#000000" font-family="sans-serif" font-size="13" lengthAdjust="spacing" textLength="237" x="153.5" y="134.6294">&#20351;&#29992;SET&#21629;&#20196;&#23581;&#35797;&#33719;&#21462;&#38145;&#65288;&#24102;&#26377;NX&#21442;&#25968;&#65289;</text><polygon fill="#181818" points="380.5,164.8281,390.5,168.8281,380.5,172.8281,384.5,168.8281" style="stroke:#181818;stroke-width:1.0;"/><line style="stroke:#181818;stroke-width:1.0;stroke-dasharray:2.0,2.0;" x1="131.5" x2="386.5" y1="168.8281" y2="168.8281"/><text fill="#000000" font-family="sans-serif" font-size="13" lengthAdjust="spacing" textLength="91" x="138.5" y="163.7622">&#36820;&#22238;&#38145;&#33719;&#21462;&#32467;&#26524;</text><path d="M10,183.8281 L74,183.8281 L74,190.9609 L64,200.9609 L10,200.9609 L10,183.8281 " fill="#EEEEEE" style="stroke:#000000;stroke-width:1.5;"/><rect fill="none" height="518.7266" style="stroke:#000000;stroke-width:1.5;" width="437" x="10" y="183.8281"/><text fill="#000000" font-family="sans-serif" font-size="13" font-weight="bold" lengthAdjust="spacing" textLength="19" x="25" y="196.895">alt</text><polygon fill="#181818" points="62.5,218.0938,52.5,222.0938,62.5,226.0938,58.5,222.0938" style="stroke:#181818;stroke-width:1.0;"/><line style="stroke:#181818;stroke-width:1.0;" x1="56.5" x2="391.5" y1="222.0938" y2="222.0938"/><text fill="#000000" font-family="sans-serif" font-size="13" lengthAdjust="spacing" textLength="117" x="68.5" y="217.0278">&#36820;&#22238;&#33719;&#21462;&#38145;&#25104;&#21151;&#28040;&#24687;</text><polygon fill="#181818" points="266.5,247.2266,276.5,251.2266,266.5,255.2266,270.5,251.2266" style="stroke:#181818;stroke-width:1.0;"/><line style="stroke:#181818;stroke-width:1.0;" x1="51.5" x2="272.5" y1="251.2266" y2="251.2266"/><text fill="#000000" font-family="sans-serif" font-size="13" lengthAdjust="spacing" textLength="182" x="58.5" y="246.1606">&#25191;&#34892;&#19994;&#21153;&#36923;&#36753;&#65288;&#33719;&#21462;&#38145;&#25104;&#21151;&#21518;&#65289;</text><polygon fill="#181818" points="380.5,306.3594,390.5,310.3594,380.5,314.3594,384.5,310.3594" style="stroke:#181818;stroke-width:1.0;"/><line style="stroke:#181818;stroke-width:1.0;" x1="46.5" x2="386.5" y1="310.3594" y2="310.3594"/><text fill="#000000" font-family="sans-serif" font-size="13" lengthAdjust="spacing" textLength="65" x="53.5" y="305.2935">&#32493;&#32422;&#38145;&#35831;&#27714;</text><polygon fill="#181818" points="147.5,335.4922,137.5,339.4922,147.5,343.4922,143.5,339.4922" style="stroke:#181818;stroke-width:1.0;"/><line style="stroke:#181818;stroke-width:1.0;" x1="141.5" x2="391.5" y1="339.4922" y2="339.4922"/><text fill="#000000" font-family="sans-serif" font-size="13" lengthAdjust="spacing" textLength="186" x="153.5" y="334.4263">&#20351;&#29992;EXPIRE&#21629;&#20196;&#26356;&#26032;&#38145;&#36807;&#26399;&#26102;&#38388;</text><polygon fill="#181818" points="380.5,364.625,390.5,368.625,380.5,372.625,384.5,368.625" style="stroke:#181818;stroke-width:1.0;"/><line style="stroke:#181818;stroke-width:1.0;stroke-dasharray:2.0,2.0;" x1="131.5" x2="386.5" y1="368.625" y2="368.625"/><text fill="#000000" font-family="sans-serif" font-size="13" lengthAdjust="spacing" textLength="78" x="138.5" y="363.5591">&#36820;&#22238;&#32493;&#32422;&#32467;&#26524;</text><polygon fill="#181818" points="62.5,393.7578,52.5,397.7578,62.5,401.7578,58.5,397.7578" style="stroke:#181818;stroke-width:1.0;"/><line style="stroke:#181818;stroke-width:1.0;" x1="56.5" x2="391.5" y1="397.7578" y2="397.7578"/><text fill="#000000" font-family="sans-serif" font-size="13" lengthAdjust="spacing" textLength="104" x="68.5" y="392.6919">&#36820;&#22238;&#32493;&#32422;&#25104;&#21151;&#28040;&#24687;</text><polygon fill="#181818" points="266.5,452.8906,276.5,456.8906,266.5,460.8906,270.5,456.8906" style="stroke:#181818;stroke-width:1.0;"/><line style="stroke:#181818;stroke-width:1.0;" x1="46.5" x2="272.5" y1="456.8906" y2="456.8906"/><text fill="#000000" font-family="sans-serif" font-size="13" lengthAdjust="spacing" textLength="195" x="53.5" y="451.8247">&#32487;&#32493;&#25191;&#34892;&#19994;&#21153;&#36923;&#36753;&#65288;&#32493;&#32422;&#25104;&#21151;&#21518;&#65289;</text><polygon fill="#181818" points="380.5,512.0234,390.5,516.0234,380.5,520.0234,384.5,516.0234" style="stroke:#181818;stroke-width:1.0;"/><line style="stroke:#181818;stroke-width:1.0;" x1="46.5" x2="386.5" y1="516.0234" y2="516.0234"/><text fill="#000000" font-family="sans-serif" font-size="13" lengthAdjust="spacing" textLength="65" x="53.5" y="510.9575">&#37322;&#25918;&#38145;&#35831;&#27714;</text><polygon fill="#181818" points="147.5,541.1563,137.5,545.1563,147.5,549.1563,143.5,545.1563" style="stroke:#181818;stroke-width:1.0;"/><line style="stroke:#181818;stroke-width:1.0;" x1="141.5" x2="391.5" y1="545.1563" y2="545.1563"/><text fill="#000000" font-family="sans-serif" font-size="13" lengthAdjust="spacing" textLength="192" x="153.5" y="540.0903">&#20351;&#29992;Lua&#33050;&#26412;&#37322;&#25918;&#38145;&#65288;&#21407;&#23376;&#25805;&#20316;&#65289;</text><polygon fill="#181818" points="380.5,570.2891,390.5,574.2891,380.5,578.2891,384.5,574.2891" style="stroke:#181818;stroke-width:1.0;"/><line style="stroke:#181818;stroke-width:1.0;stroke-dasharray:2.0,2.0;" x1="131.5" x2="386.5" y1="574.2891" y2="574.2891"/><text fill="#000000" font-family="sans-serif" font-size="13" lengthAdjust="spacing" textLength="91" x="138.5" y="569.2231">&#36820;&#22238;&#37322;&#25918;&#38145;&#32467;&#26524;</text><polygon fill="#181818" points="62.5,599.4219,52.5,603.4219,62.5,607.4219,58.5,603.4219" style="stroke:#181818;stroke-width:1.0;"/><line style="stroke:#181818;stroke-width:1.0;" x1="56.5" x2="391.5" y1="603.4219" y2="603.4219"/><text fill="#000000" font-family="sans-serif" font-size="13" lengthAdjust="spacing" textLength="117" x="68.5" y="598.356">&#36820;&#22238;&#37322;&#25918;&#38145;&#25104;&#21151;&#28040;&#24687;</text><line style="stroke:#000000;stroke-width:1.0;stroke-dasharray:2.0,2.0;" x1="10" x2="447" y1="642.4219" y2="642.4219"/><polygon fill="#181818" points="62.5,660.5547,52.5,664.5547,62.5,668.5547,58.5,664.5547" style="stroke:#181818;stroke-width:1.0;"/><line style="stroke:#181818;stroke-width:1.0;" x1="56.5" x2="391.5" y1="664.5547" y2="664.5547"/><text fill="#000000" font-family="sans-serif" font-size="13" lengthAdjust="spacing" textLength="117" x="68.5" y="659.4888">&#36820;&#22238;&#33719;&#21462;&#38145;&#22833;&#36133;&#28040;&#24687;</text><rect fill="#EEEEEE" height="3" style="stroke:#EEEEEE;stroke-width:1.0;" width="457" x="0" y="730.1211"/><line style="stroke:#000000;stroke-width:1.0;" x1="0" x2="457" y1="730.1211" y2="730.1211"/><line style="stroke:#000000;stroke-width:1.0;" x1="0" x2="457" y1="733.1211" y2="733.1211"/><rect fill="#EEEEEE" height="23.1328" style="stroke:#000000;stroke-width:2.0;" width="117" x="170" y="719.5547"/><text fill="#000000" font-family="sans-serif" font-size="13" font-weight="bold" lengthAdjust="spacing" textLength="98" x="176" y="735.6216">&#37325;&#20837;&#33719;&#21462;&#38145;&#36807;&#31243;</text><polygon fill="#181818" points="385.5,769.8203,395.5,773.8203,385.5,777.8203,389.5,773.8203" style="stroke:#181818;stroke-width:1.0;"/><line style="stroke:#181818;stroke-width:1.0;" x1="46.5" x2="391.5" y1="773.8203" y2="773.8203"/><text fill="#000000" font-family="sans-serif" font-size="13" lengthAdjust="spacing" textLength="156" x="53.5" y="768.7544">&#35831;&#27714;&#33719;&#21462;&#20998;&#24067;&#24335;&#38145;&#65288;&#37325;&#20837;&#65289;</text><polygon fill="#181818" points="147.5,798.9531,137.5,802.9531,147.5,806.9531,143.5,802.9531" style="stroke:#181818;stroke-width:1.0;"/><line style="stroke:#181818;stroke-width:1.0;" x1="141.5" x2="396.5" y1="802.9531" y2="802.9531"/><text fill="#000000" font-family="sans-serif" font-size="13" lengthAdjust="spacing" textLength="181" x="153.5" y="797.8872">&#20351;&#29992;GET&#21629;&#20196;&#33719;&#21462;&#38145;&#25345;&#26377;&#32773;&#20449;&#24687;</text><polygon fill="#181818" points="385.5,828.0859,395.5,832.0859,385.5,836.0859,389.5,832.0859" style="stroke:#181818;stroke-width:1.0;"/><line style="stroke:#181818;stroke-width:1.0;stroke-dasharray:2.0,2.0;" x1="131.5" x2="391.5" y1="832.0859" y2="832.0859"/><text fill="#000000" font-family="sans-serif" font-size="13" lengthAdjust="spacing" textLength="104" x="138.5" y="827.02">&#36820;&#22238;&#38145;&#25345;&#26377;&#32773;&#20449;&#24687;</text><polygon fill="#181818" points="62.5,857.2188,52.5,861.2188,62.5,865.2188,58.5,861.2188" style="stroke:#181818;stroke-width:1.0;"/><line style="stroke:#181818;stroke-width:1.0;stroke-dasharray:2.0,2.0;" x1="56.5" x2="396.5" y1="861.2188" y2="861.2188"/><text fill="#000000" font-family="sans-serif" font-size="13" lengthAdjust="spacing" textLength="104" x="68.5" y="856.1528">&#36820;&#22238;&#38145;&#25345;&#26377;&#32773;&#20449;&#24687;</text><polygon fill="#181818" points="266.5,886.3516,276.5,890.3516,266.5,894.3516,270.5,890.3516" style="stroke:#181818;stroke-width:1.0;"/><line style="stroke:#181818;stroke-width:1.0;" x1="51.5" x2="272.5" y1="890.3516" y2="890.3516"/><text fill="#000000" font-family="sans-serif" font-size="13" lengthAdjust="spacing" textLength="208" x="58.5" y="885.2856">&#25191;&#34892;&#19994;&#21153;&#36923;&#36753;&#65288;&#37325;&#20837;&#33719;&#21462;&#38145;&#25104;&#21151;&#21518;&#65289;</text><polygon fill="#181818" points="390.5,945.4844,400.5,949.4844,390.5,953.4844,394.5,949.4844" style="stroke:#181818;stroke-width:1.0;"/><line style="stroke:#181818;stroke-width:1.0;" x1="46.5" x2="396.5" y1="949.4844" y2="949.4844"/><text fill="#000000" font-family="sans-serif" font-size="13" lengthAdjust="spacing" textLength="117" x="53.5" y="944.4185">&#37322;&#25918;&#38145;&#35831;&#27714;&#65288;&#37325;&#20837;&#65289;</text><polygon fill="#181818" points="147.5,974.6172,137.5,978.6172,147.5,982.6172,143.5,978.6172" style="stroke:#181818;stroke-width:1.0;"/><line style="stroke:#181818;stroke-width:1.0;" x1="141.5" x2="401.5" y1="978.6172" y2="978.6172"/><text fill="#000000" font-family="sans-serif" font-size="13" lengthAdjust="spacing" textLength="192" x="153.5" y="973.5513">&#20351;&#29992;Lua&#33050;&#26412;&#37322;&#25918;&#38145;&#65288;&#21407;&#23376;&#25805;&#20316;&#65289;</text><polygon fill="#181818" points="390.5,1003.75,400.5,1007.75,390.5,1011.75,394.5,1007.75" style="stroke:#181818;stroke-width:1.0;"/><line style="stroke:#181818;stroke-width:1.0;stroke-dasharray:2.0,2.0;" x1="131.5" x2="396.5" y1="1007.75" y2="1007.75"/><text fill="#000000" font-family="sans-serif" font-size="13" lengthAdjust="spacing" textLength="91" x="138.5" y="1002.6841">&#36820;&#22238;&#37322;&#25918;&#38145;&#32467;&#26524;</text><polygon fill="#181818" points="62.5,1032.8828,52.5,1036.8828,62.5,1040.8828,58.5,1036.8828" style="stroke:#181818;stroke-width:1.0;"/><line style="stroke:#181818;stroke-width:1.0;" x1="56.5" x2="401.5" y1="1036.8828" y2="1036.8828"/><text fill="#000000" font-family="sans-serif" font-size="13" lengthAdjust="spacing" textLength="169" x="68.5" y="1031.8169">&#36820;&#22238;&#37322;&#25918;&#38145;&#25104;&#21151;&#28040;&#24687;&#65288;&#37325;&#20837;&#65289;</text><rect fill="#EEEEEE" height="3" style="stroke:#EEEEEE;stroke-width:1.0;" width="457" x="0" y="1095.4492"/><line style="stroke:#000000;stroke-width:1.0;" x1="0" x2="457" y1="1095.4492" y2="1095.4492"/><line style="stroke:#000000;stroke-width:1.0;" x1="0" x2="457" y1="1098.4492" y2="1098.4492"/><rect fill="#EEEEEE" height="23.1328" style="stroke:#000000;stroke-width:2.0;" width="117" x="170" y="1084.8828"/><text fill="#000000" font-family="sans-serif" font-size="13" font-weight="bold" lengthAdjust="spacing" textLength="98" x="176" y="1100.9497">&#22810;&#27425;&#37322;&#25918;&#38145;&#36807;&#31243;</text><polygon fill="#181818" points="395.5,1135.1484,405.5,1139.1484,395.5,1143.1484,399.5,1139.1484" style="stroke:#181818;stroke-width:1.0;"/><line style="stroke:#181818;stroke-width:1.0;" x1="46.5" x2="401.5" y1="1139.1484" y2="1139.1484"/><text fill="#000000" font-family="sans-serif" font-size="13" lengthAdjust="spacing" textLength="182" x="53.5" y="1134.0825">&#35831;&#27714;&#33719;&#21462;&#20998;&#24067;&#24335;&#38145;&#65288;&#22810;&#27425;&#37322;&#25918;&#65289;</text><polygon fill="#181818" points="147.5,1164.2813,137.5,1168.2813,147.5,1172.2813,143.5,1168.2813" style="stroke:#181818;stroke-width:1.0;"/><line style="stroke:#181818;stroke-width:1.0;" x1="141.5" x2="406.5" y1="1168.2813" y2="1168.2813"/><text fill="#000000" font-family="sans-serif" font-size="13" lengthAdjust="spacing" textLength="181" x="153.5" y="1163.2153">&#20351;&#29992;GET&#21629;&#20196;&#33719;&#21462;&#38145;&#25345;&#26377;&#32773;&#20449;&#24687;</text><polygon fill="#181818" points="395.5,1193.4141,405.5,1197.4141,395.5,1201.4141,399.5,1197.4141" style="stroke:#181818;stroke-width:1.0;"/><line style="stroke:#181818;stroke-width:1.0;stroke-dasharray:2.0,2.0;" x1="131.5" x2="401.5" y1="1197.4141" y2="1197.4141"/><text fill="#000000" font-family="sans-serif" font-size="13" lengthAdjust="spacing" textLength="104" x="138.5" y="1192.3481">&#36820;&#22238;&#38145;&#25345;&#26377;&#32773;&#20449;&#24687;</text><polygon fill="#181818" points="62.5,1222.5469,52.5,1226.5469,62.5,1230.5469,58.5,1226.5469" style="stroke:#181818;stroke-width:1.0;"/><line style="stroke:#181818;stroke-width:1.0;stroke-dasharray:2.0,2.0;" x1="56.5" x2="406.5" y1="1226.5469" y2="1226.5469"/><text fill="#000000" font-family="sans-serif" font-size="13" lengthAdjust="spacing" textLength="104" x="68.5" y="1221.481">&#36820;&#22238;&#38145;&#25345;&#26377;&#32773;&#20449;&#24687;</text><polygon fill="#181818" points="395.5,1251.6797,405.5,1255.6797,395.5,1259.6797,399.5,1255.6797" style="stroke:#181818;stroke-width:1.0;"/><line style="stroke:#181818;stroke-width:1.0;" x1="51.5" x2="401.5" y1="1255.6797" y2="1255.6797"/><text fill="#000000" font-family="sans-serif" font-size="13" lengthAdjust="spacing" textLength="143" x="58.5" y="1250.6138">&#37322;&#25918;&#38145;&#35831;&#27714;&#65288;&#22810;&#27425;&#37322;&#25918;&#65289;</text><polygon fill="#181818" points="147.5,1280.8125,137.5,1284.8125,147.5,1288.8125,143.5,1284.8125" style="stroke:#181818;stroke-width:1.0;"/><line style="stroke:#181818;stroke-width:1.0;" x1="141.5" x2="406.5" y1="1284.8125" y2="1284.8125"/><text fill="#000000" font-family="sans-serif" font-size="13" lengthAdjust="spacing" textLength="192" x="153.5" y="1279.7466">&#20351;&#29992;Lua&#33050;&#26412;&#37322;&#25918;&#38145;&#65288;&#21407;&#23376;&#25805;&#20316;&#65289;</text><polygon fill="#181818" points="395.5,1309.9453,405.5,1313.9453,395.5,1317.9453,399.5,1313.9453" style="stroke:#181818;stroke-width:1.0;"/><line style="stroke:#181818;stroke-width:1.0;stroke-dasharray:2.0,2.0;" x1="131.5" x2="401.5" y1="1313.9453" y2="1313.9453"/><text fill="#000000" font-family="sans-serif" font-size="13" lengthAdjust="spacing" textLength="91" x="138.5" y="1308.8794">&#36820;&#22238;&#37322;&#25918;&#38145;&#32467;&#26524;</text><polygon fill="#181818" points="67.5,1339.0781,57.5,1343.0781,67.5,1347.0781,63.5,1343.0781" style="stroke:#181818;stroke-width:1.0;"/><line style="stroke:#181818;stroke-width:1.0;" x1="61.5" x2="401.5" y1="1343.0781" y2="1343.0781"/><text fill="#000000" font-family="sans-serif" font-size="13" lengthAdjust="spacing" textLength="195" x="73.5" y="1338.0122">&#36820;&#22238;&#37322;&#25918;&#38145;&#25104;&#21151;&#28040;&#24687;&#65288;&#22810;&#27425;&#37322;&#25918;&#65289;</text></g></svg>