<?xml version="1.0" encoding="us-ascii" standalone="no"?><svg xmlns="http://www.w3.org/2000/svg" xmlns:xlink="http://www.w3.org/1999/xlink" contentStyleType="text/css" height="845px" preserveAspectRatio="none" style="width:733px;height:845px;background:#FFFFFF;" version="1.1" viewBox="0 0 733 845" width="733px" zoomAndPan="magnify"><defs/><g><line style="stroke:#181818;stroke-width:0.5;stroke-dasharray:5.0,5.0;" x1="31" x2="31" y1="36.2969" y2="810.6172"/><line style="stroke:#181818;stroke-width:0.5;stroke-dasharray:5.0,5.0;" x1="133" x2="133" y1="36.2969" y2="810.6172"/><line style="stroke:#181818;stroke-width:0.5;stroke-dasharray:5.0,5.0;" x1="235" x2="235" y1="36.2969" y2="810.6172"/><line style="stroke:#181818;stroke-width:0.5;stroke-dasharray:5.0,5.0;" x1="337" x2="337" y1="36.2969" y2="810.6172"/><line style="stroke:#181818;stroke-width:0.5;stroke-dasharray:5.0,5.0;" x1="440" x2="440" y1="36.2969" y2="810.6172"/><line style="stroke:#181818;stroke-width:0.5;stroke-dasharray:5.0,5.0;" x1="553" x2="553" y1="36.2969" y2="810.6172"/><line style="stroke:#181818;stroke-width:0.5;stroke-dasharray:5.0,5.0;" x1="667" x2="667" y1="36.2969" y2="810.6172"/><rect fill="#E2E2F0" height="30.2969" rx="2.5" ry="2.5" style="stroke:#181818;stroke-width:0.5;" width="53" x="5" y="5"/><text fill="#000000" font-family="sans-serif" font-size="14" lengthAdjust="spacing" textLength="39" x="12" y="24.9951">Client</text><rect fill="#E2E2F0" height="30.2969" rx="2.5" ry="2.5" style="stroke:#181818;stroke-width:0.5;" width="53" x="5" y="809.6172"/><text fill="#000000" font-family="sans-serif" font-size="14" lengthAdjust="spacing" textLength="39" x="12" y="829.6123">Client</text><rect fill="#E2E2F0" height="30.2969" rx="2.5" ry="2.5" style="stroke:#181818;stroke-width:0.5;" width="83" x="92" y="5"/><text fill="#000000" font-family="sans-serif" font-size="14" lengthAdjust="spacing" textLength="69" x="99" y="24.9951">Sentinel 1</text><rect fill="#E2E2F0" height="30.2969" rx="2.5" ry="2.5" style="stroke:#181818;stroke-width:0.5;" width="83" x="92" y="809.6172"/><text fill="#000000" font-family="sans-serif" font-size="14" lengthAdjust="spacing" textLength="69" x="99" y="829.6123">Sentinel 1</text><rect fill="#E2E2F0" height="30.2969" rx="2.5" ry="2.5" style="stroke:#181818;stroke-width:0.5;" width="83" x="194" y="5"/><text fill="#000000" font-family="sans-serif" font-size="14" lengthAdjust="spacing" textLength="69" x="201" y="24.9951">Sentinel 2</text><rect fill="#E2E2F0" height="30.2969" rx="2.5" ry="2.5" style="stroke:#181818;stroke-width:0.5;" width="83" x="194" y="809.6172"/><text fill="#000000" font-family="sans-serif" font-size="14" lengthAdjust="spacing" textLength="69" x="201" y="829.6123">Sentinel 2</text><rect fill="#E2E2F0" height="30.2969" rx="2.5" ry="2.5" style="stroke:#181818;stroke-width:0.5;" width="83" x="296" y="5"/><text fill="#000000" font-family="sans-serif" font-size="14" lengthAdjust="spacing" textLength="69" x="303" y="24.9951">Sentinel 3</text><rect fill="#E2E2F0" height="30.2969" rx="2.5" ry="2.5" style="stroke:#181818;stroke-width:0.5;" width="83" x="296" y="809.6172"/><text fill="#000000" font-family="sans-serif" font-size="14" lengthAdjust="spacing" textLength="69" x="303" y="829.6123">Sentinel 3</text><rect fill="#E2E2F0" height="30.2969" rx="2.5" ry="2.5" style="stroke:#181818;stroke-width:0.5;" width="102" x="389" y="5"/><text fill="#000000" font-family="sans-serif" font-size="14" lengthAdjust="spacing" textLength="88" x="396" y="24.9951">Master Node</text><rect fill="#E2E2F0" height="30.2969" rx="2.5" ry="2.5" style="stroke:#181818;stroke-width:0.5;" width="102" x="389" y="809.6172"/><text fill="#000000" font-family="sans-serif" font-size="14" lengthAdjust="spacing" textLength="88" x="396" y="829.6123">Master Node</text><rect fill="#E2E2F0" height="30.2969" rx="2.5" ry="2.5" style="stroke:#181818;stroke-width:0.5;" width="104" x="501" y="5"/><text fill="#000000" font-family="sans-serif" font-size="14" lengthAdjust="spacing" textLength="90" x="508" y="24.9951">Slave Node 1</text><rect fill="#E2E2F0" height="30.2969" rx="2.5" ry="2.5" style="stroke:#181818;stroke-width:0.5;" width="104" x="501" y="809.6172"/><text fill="#000000" font-family="sans-serif" font-size="14" lengthAdjust="spacing" textLength="90" x="508" y="829.6123">Slave Node 1</text><rect fill="#E2E2F0" height="30.2969" rx="2.5" ry="2.5" style="stroke:#181818;stroke-width:0.5;" width="104" x="615" y="5"/><text fill="#000000" font-family="sans-serif" font-size="14" lengthAdjust="spacing" textLength="90" x="622" y="24.9951">Slave Node 2</text><rect fill="#E2E2F0" height="30.2969" rx="2.5" ry="2.5" style="stroke:#181818;stroke-width:0.5;" width="104" x="615" y="809.6172"/><text fill="#000000" font-family="sans-serif" font-size="14" lengthAdjust="spacing" textLength="90" x="622" y="829.6123">Slave Node 2</text><polygon fill="#181818" points="121.5,63.4297,131.5,67.4297,121.5,71.4297,125.5,67.4297" style="stroke:#181818;stroke-width:1.0;"/><line style="stroke:#181818;stroke-width:1.0;" x1="31.5" x2="127.5" y1="67.4297" y2="67.4297"/><text fill="#000000" font-family="sans-serif" font-size="13" lengthAdjust="spacing" textLength="26" x="38.5" y="62.3638">&#35831;&#27714;</text><polygon fill="#181818" points="428,92.5625,438,96.5625,428,100.5625,432,96.5625" style="stroke:#181818;stroke-width:1.0;"/><line style="stroke:#181818;stroke-width:1.0;" x1="133.5" x2="434" y1="96.5625" y2="96.5625"/><text fill="#000000" font-family="sans-serif" font-size="13" lengthAdjust="spacing" textLength="117" x="140.5" y="91.4966">&#30417;&#27979;&#20027;&#33410;&#28857;&#20581;&#24247;&#29366;&#24577;</text><polygon fill="#181818" points="144.5,121.6953,134.5,125.6953,144.5,129.6953,140.5,125.6953" style="stroke:#181818;stroke-width:1.0;"/><line style="stroke:#181818;stroke-width:1.0;stroke-dasharray:2.0,2.0;" x1="138.5" x2="439" y1="125.6953" y2="125.6953"/><text fill="#000000" font-family="sans-serif" font-size="13" lengthAdjust="spacing" textLength="65" x="150.5" y="120.6294">&#20027;&#33410;&#28857;&#22312;&#32447;</text><polygon fill="#181818" points="541,150.8281,551,154.8281,541,158.8281,545,154.8281" style="stroke:#181818;stroke-width:1.0;"/><line style="stroke:#181818;stroke-width:1.0;" x1="133.5" x2="547" y1="154.8281" y2="154.8281"/><text fill="#000000" font-family="sans-serif" font-size="13" lengthAdjust="spacing" textLength="117" x="140.5" y="149.7622">&#30417;&#27979;&#20174;&#33410;&#28857;&#20581;&#24247;&#29366;&#24577;</text><polygon fill="#181818" points="144.5,179.9609,134.5,183.9609,144.5,187.9609,140.5,183.9609" style="stroke:#181818;stroke-width:1.0;"/><line style="stroke:#181818;stroke-width:1.0;stroke-dasharray:2.0,2.0;" x1="138.5" x2="552" y1="183.9609" y2="183.9609"/><text fill="#000000" font-family="sans-serif" font-size="13" lengthAdjust="spacing" textLength="65" x="150.5" y="178.895">&#20174;&#33410;&#28857;&#22312;&#32447;</text><polygon fill="#181818" points="655,209.0938,665,213.0938,655,217.0938,659,213.0938" style="stroke:#181818;stroke-width:1.0;"/><line style="stroke:#181818;stroke-width:1.0;" x1="133.5" x2="661" y1="213.0938" y2="213.0938"/><text fill="#000000" font-family="sans-serif" font-size="13" lengthAdjust="spacing" textLength="117" x="140.5" y="208.0278">&#30417;&#27979;&#20174;&#33410;&#28857;&#20581;&#24247;&#29366;&#24577;</text><polygon fill="#181818" points="144.5,238.2266,134.5,242.2266,144.5,246.2266,140.5,242.2266" style="stroke:#181818;stroke-width:1.0;"/><line style="stroke:#181818;stroke-width:1.0;stroke-dasharray:2.0,2.0;" x1="138.5" x2="666" y1="242.2266" y2="242.2266"/><text fill="#000000" font-family="sans-serif" font-size="13" lengthAdjust="spacing" textLength="65" x="150.5" y="237.1606">&#20174;&#33410;&#28857;&#22312;&#32447;</text><polygon fill="#181818" points="42.5,267.3594,32.5,271.3594,42.5,275.3594,38.5,271.3594" style="stroke:#181818;stroke-width:1.0;"/><line style="stroke:#181818;stroke-width:1.0;" x1="36.5" x2="132.5" y1="271.3594" y2="271.3594"/><text fill="#000000" font-family="sans-serif" font-size="13" lengthAdjust="spacing" textLength="26" x="48.5" y="266.2935">&#21709;&#24212;</text><polygon fill="#181818" points="428,296.4922,438,300.4922,428,304.4922,432,300.4922" style="stroke:#181818;stroke-width:1.0;"/><line style="stroke:#181818;stroke-width:1.0;" x1="133.5" x2="434" y1="300.4922" y2="300.4922"/><text fill="#000000" font-family="sans-serif" font-size="13" lengthAdjust="spacing" textLength="117" x="140.5" y="295.4263">&#35831;&#27714;&#20027;&#33410;&#28857;&#20581;&#24247;&#29366;&#24577;</text><polygon fill="#181818" points="144.5,325.625,134.5,329.625,144.5,333.625,140.5,329.625" style="stroke:#181818;stroke-width:1.0;"/><line style="stroke:#181818;stroke-width:1.0;stroke-dasharray:2.0,2.0;" x1="138.5" x2="439" y1="329.625" y2="329.625"/><text fill="#000000" font-family="sans-serif" font-size="13" lengthAdjust="spacing" textLength="65" x="150.5" y="324.5591">&#20027;&#33410;&#28857;&#19979;&#32447;</text><polygon fill="#181818" points="223.5,354.7578,233.5,358.7578,223.5,362.7578,227.5,358.7578" style="stroke:#181818;stroke-width:1.0;"/><line style="stroke:#181818;stroke-width:1.0;" x1="133.5" x2="229.5" y1="358.7578" y2="358.7578"/><text fill="#000000" font-family="sans-serif" font-size="13" lengthAdjust="spacing" textLength="78" x="140.5" y="353.6919">&#35831;&#27714;&#25925;&#38556;&#36716;&#31227;</text><polygon fill="#181818" points="325.5,383.8906,335.5,387.8906,325.5,391.8906,329.5,387.8906" style="stroke:#181818;stroke-width:1.0;"/><line style="stroke:#181818;stroke-width:1.0;" x1="235.5" x2="331.5" y1="387.8906" y2="387.8906"/><text fill="#000000" font-family="sans-serif" font-size="13" lengthAdjust="spacing" textLength="78" x="242.5" y="382.8247">&#35831;&#27714;&#25925;&#38556;&#36716;&#31227;</text><polygon fill="#181818" points="428,413.0234,438,417.0234,428,421.0234,432,417.0234" style="stroke:#181818;stroke-width:1.0;"/><line style="stroke:#181818;stroke-width:1.0;" x1="337.5" x2="434" y1="417.0234" y2="417.0234"/><text fill="#000000" font-family="sans-serif" font-size="13" lengthAdjust="spacing" textLength="78" x="344.5" y="411.9575">&#35831;&#27714;&#25925;&#38556;&#36716;&#31227;</text><polygon fill="#181818" points="348.5,442.1563,338.5,446.1563,348.5,450.1563,344.5,446.1563" style="stroke:#181818;stroke-width:1.0;"/><line style="stroke:#181818;stroke-width:1.0;stroke-dasharray:2.0,2.0;" x1="342.5" x2="439" y1="446.1563" y2="446.1563"/><text fill="#000000" font-family="sans-serif" font-size="13" lengthAdjust="spacing" textLength="78" x="354.5" y="441.0903">&#21516;&#24847;&#25925;&#38556;&#36716;&#31227;</text><polygon fill="#181818" points="541,471.2891,551,475.2891,541,479.2891,545,475.2891" style="stroke:#181818;stroke-width:1.0;"/><line style="stroke:#181818;stroke-width:1.0;" x1="337.5" x2="547" y1="475.2891" y2="475.2891"/><text fill="#000000" font-family="sans-serif" font-size="13" lengthAdjust="spacing" textLength="78" x="344.5" y="470.2231">&#25552;&#21319;&#20026;&#20027;&#33410;&#28857;</text><line style="stroke:#181818;stroke-width:1.0;" x1="553" x2="595" y1="504.4219" y2="504.4219"/><line style="stroke:#181818;stroke-width:1.0;" x1="595" x2="595" y1="504.4219" y2="517.4219"/><line style="stroke:#181818;stroke-width:1.0;" x1="554" x2="595" y1="517.4219" y2="517.4219"/><polygon fill="#181818" points="564,513.4219,554,517.4219,564,521.4219,560,517.4219" style="stroke:#181818;stroke-width:1.0;"/><text fill="#000000" font-family="sans-serif" font-size="13" lengthAdjust="spacing" textLength="52" x="560" y="499.356">&#21516;&#27493;&#25968;&#25454;</text><polygon fill="#181818" points="655,542.5547,665,546.5547,655,550.5547,659,546.5547" style="stroke:#181818;stroke-width:1.0;"/><line style="stroke:#181818;stroke-width:1.0;" x1="337.5" x2="661" y1="546.5547" y2="546.5547"/><text fill="#000000" font-family="sans-serif" font-size="13" lengthAdjust="spacing" textLength="52" x="344.5" y="541.4888">&#21516;&#27493;&#25968;&#25454;</text><line style="stroke:#181818;stroke-width:1.0;" x1="667" x2="709" y1="575.6875" y2="575.6875"/><line style="stroke:#181818;stroke-width:1.0;" x1="709" x2="709" y1="575.6875" y2="588.6875"/><line style="stroke:#181818;stroke-width:1.0;" x1="668" x2="709" y1="588.6875" y2="588.6875"/><polygon fill="#181818" points="678,584.6875,668,588.6875,678,592.6875,674,588.6875" style="stroke:#181818;stroke-width:1.0;"/><text fill="#000000" font-family="sans-serif" font-size="13" lengthAdjust="spacing" textLength="52" x="674" y="570.6216">&#21516;&#27493;&#25968;&#25454;</text><polygon fill="#181818" points="348.5,613.8203,338.5,617.8203,348.5,621.8203,344.5,617.8203" style="stroke:#181818;stroke-width:1.0;"/><line style="stroke:#181818;stroke-width:1.0;stroke-dasharray:2.0,2.0;" x1="342.5" x2="552" y1="617.8203" y2="617.8203"/><text fill="#000000" font-family="sans-serif" font-size="13" lengthAdjust="spacing" textLength="78" x="354.5" y="612.7544">&#25968;&#25454;&#21516;&#27493;&#23436;&#25104;</text><polygon fill="#181818" points="348.5,642.9531,338.5,646.9531,348.5,650.9531,344.5,646.9531" style="stroke:#181818;stroke-width:1.0;"/><line style="stroke:#181818;stroke-width:1.0;stroke-dasharray:2.0,2.0;" x1="342.5" x2="666" y1="646.9531" y2="646.9531"/><text fill="#000000" font-family="sans-serif" font-size="13" lengthAdjust="spacing" textLength="78" x="354.5" y="641.8872">&#25968;&#25454;&#21516;&#27493;&#23436;&#25104;</text><polygon fill="#181818" points="246.5,672.0859,236.5,676.0859,246.5,680.0859,242.5,676.0859" style="stroke:#181818;stroke-width:1.0;"/><line style="stroke:#181818;stroke-width:1.0;" x1="240.5" x2="336.5" y1="676.0859" y2="676.0859"/><text fill="#000000" font-family="sans-serif" font-size="13" lengthAdjust="spacing" textLength="78" x="252.5" y="671.02">&#23436;&#25104;&#25925;&#38556;&#36716;&#31227;</text><polygon fill="#181818" points="144.5,701.2188,134.5,705.2188,144.5,709.2188,140.5,705.2188" style="stroke:#181818;stroke-width:1.0;"/><line style="stroke:#181818;stroke-width:1.0;" x1="138.5" x2="234.5" y1="705.2188" y2="705.2188"/><text fill="#000000" font-family="sans-serif" font-size="13" lengthAdjust="spacing" textLength="78" x="150.5" y="700.1528">&#23436;&#25104;&#25925;&#38556;&#36716;&#31227;</text><polygon fill="#181818" points="42.5,730.3516,32.5,734.3516,42.5,738.3516,38.5,734.3516" style="stroke:#181818;stroke-width:1.0;"/><line style="stroke:#181818;stroke-width:1.0;" x1="36.5" x2="132.5" y1="734.3516" y2="734.3516"/><text fill="#000000" font-family="sans-serif" font-size="13" lengthAdjust="spacing" textLength="78" x="48.5" y="729.2856">&#20027;&#33410;&#28857;&#24050;&#19979;&#32447;</text><polygon fill="#181818" points="541,759.4844,551,763.4844,541,767.4844,545,763.4844" style="stroke:#181818;stroke-width:1.0;"/><line style="stroke:#181818;stroke-width:1.0;" x1="31.5" x2="547" y1="763.4844" y2="763.4844"/><text fill="#000000" font-family="sans-serif" font-size="13" lengthAdjust="spacing" textLength="26" x="38.5" y="758.4185">&#35831;&#27714;</text><polygon fill="#181818" points="42.5,788.6172,32.5,792.6172,42.5,796.6172,38.5,792.6172" style="stroke:#181818;stroke-width:1.0;"/><line style="stroke:#181818;stroke-width:1.0;" x1="36.5" x2="552" y1="792.6172" y2="792.6172"/><text fill="#000000" font-family="sans-serif" font-size="13" lengthAdjust="spacing" textLength="26" x="48.5" y="787.5513">&#21709;&#24212;</text></g></svg>