<?xml version="1.0" encoding="us-ascii" standalone="no"?><svg xmlns="http://www.w3.org/2000/svg" xmlns:xlink="http://www.w3.org/1999/xlink" contentStyleType="text/css" height="623px" preserveAspectRatio="none" style="width:348px;height:623px;background:#FFFFFF;" version="1.1" viewBox="0 0 348 623" width="348px" zoomAndPan="magnify"><defs/><g><text fill="#000000" font-family="sans-serif" font-size="14" font-weight="bold" lengthAdjust="spacing" textLength="133" x="103.5" y="27.9951">Redis&#22686;&#37327;&#22797;&#21046;&#27969;&#31243;</text><rect fill="#FFFFFF" height="486.8594" style="stroke:#181818;stroke-width:1.0;" width="10" x="69.5" y="83.5938"/><rect fill="#FFFFFF" height="486.8594" style="stroke:#181818;stroke-width:1.0;" width="10" x="207.5" y="83.5938"/><rect fill="none" height="123.5313" style="stroke:#000000;stroke-width:1.5;" width="297" x="34" y="375.6563"/><line style="stroke:#181818;stroke-width:0.5;stroke-dasharray:5.0,5.0;" x1="74" x2="74" y1="73.5938" y2="588.4531"/><line style="stroke:#181818;stroke-width:0.5;stroke-dasharray:5.0,5.0;" x1="212.5" x2="212.5" y1="73.5938" y2="588.4531"/><rect fill="#E2E2F0" height="30.2969" rx="2.5" ry="2.5" style="stroke:#181818;stroke-width:0.5;" width="61" x="44" y="42.2969"/><text fill="#000000" font-family="sans-serif" font-size="14" lengthAdjust="spacing" textLength="47" x="51" y="62.292">Master</text><rect fill="#E2E2F0" height="30.2969" rx="2.5" ry="2.5" style="stroke:#181818;stroke-width:0.5;" width="61" x="44" y="587.4531"/><text fill="#000000" font-family="sans-serif" font-size="14" lengthAdjust="spacing" textLength="47" x="51" y="607.4482">Master</text><rect fill="#E2E2F0" height="30.2969" rx="2.5" ry="2.5" style="stroke:#181818;stroke-width:0.5;" width="50" x="187.5" y="42.2969"/><text fill="#000000" font-family="sans-serif" font-size="14" lengthAdjust="spacing" textLength="36" x="194.5" y="62.292">Slave</text><rect fill="#E2E2F0" height="30.2969" rx="2.5" ry="2.5" style="stroke:#181818;stroke-width:0.5;" width="50" x="187.5" y="587.4531"/><text fill="#000000" font-family="sans-serif" font-size="14" lengthAdjust="spacing" textLength="36" x="194.5" y="607.4482">Slave</text><rect fill="#FFFFFF" height="486.8594" style="stroke:#181818;stroke-width:1.0;" width="10" x="69.5" y="83.5938"/><rect fill="#FFFFFF" height="486.8594" style="stroke:#181818;stroke-width:1.0;" width="10" x="207.5" y="83.5938"/><path d="M5,88.5938 L5,113.5938 L65,113.5938 L65,98.5938 L55,88.5938 L5,88.5938 " fill="#FEFFDD" style="stroke:#181818;stroke-width:0.5;"/><path d="M55,88.5938 L55,98.5938 L65,98.5938 L55,88.5938 " fill="#FEFFDD" style="stroke:#181818;stroke-width:0.5;"/><text fill="#000000" font-family="sans-serif" font-size="13" lengthAdjust="spacing" textLength="39" x="11" y="105.6606">&#20027;&#33410;&#28857;</text><path d="M222,123.7266 L222,148.7266 L282,148.7266 L282,133.7266 L272,123.7266 L222,123.7266 " fill="#FEFFDD" style="stroke:#181818;stroke-width:0.5;"/><path d="M272,123.7266 L272,133.7266 L282,133.7266 L272,123.7266 " fill="#FEFFDD" style="stroke:#181818;stroke-width:0.5;"/><text fill="#000000" font-family="sans-serif" font-size="13" lengthAdjust="spacing" textLength="39" x="228" y="140.7935">&#20174;&#33410;&#28857;</text><rect fill="#EEEEEE" height="3" style="stroke:#EEEEEE;stroke-width:1.0;" width="341" x="0" y="174.4258"/><line style="stroke:#000000;stroke-width:1.0;" x1="0" x2="341" y1="174.4258" y2="174.4258"/><line style="stroke:#000000;stroke-width:1.0;" x1="0" x2="341" y1="177.4258" y2="177.4258"/><rect fill="#EEEEEE" height="23.1328" style="stroke:#000000;stroke-width:2.0;" width="75" x="133" y="163.8594"/><text fill="#000000" font-family="sans-serif" font-size="13" font-weight="bold" lengthAdjust="spacing" textLength="56" x="139" y="179.9263">&#24314;&#31435;&#36830;&#25509;</text><polygon fill="#181818" points="195.5,214.125,205.5,218.125,195.5,222.125,199.5,218.125" style="stroke:#181818;stroke-width:1.0;"/><line style="stroke:#181818;stroke-width:1.0;" x1="79.5" x2="201.5" y1="218.125" y2="218.125"/><text fill="#000000" font-family="sans-serif" font-size="13" lengthAdjust="spacing" textLength="69" x="86.5" y="213.0591">PSYNC&#35831;&#27714;</text><path d="M222,231.125 L222,256.125 L312,256.125 L312,241.125 L302,231.125 L222,231.125 " fill="#FEFFDD" style="stroke:#181818;stroke-width:0.5;"/><path d="M302,231.125 L302,241.125 L312,241.125 L302,231.125 " fill="#FEFFDD" style="stroke:#181818;stroke-width:0.5;"/><text fill="#000000" font-family="sans-serif" font-size="13" lengthAdjust="spacing" textLength="69" x="228" y="248.1919">PSYNC&#35831;&#27714;</text><polygon fill="#181818" points="90.5,278.3906,80.5,282.3906,90.5,286.3906,86.5,282.3906" style="stroke:#181818;stroke-width:1.0;"/><line style="stroke:#181818;stroke-width:1.0;" x1="84.5" x2="206.5" y1="282.3906" y2="282.3906"/><text fill="#000000" font-family="sans-serif" font-size="13" lengthAdjust="spacing" textLength="100" x="96.5" y="277.3247">PSYNC-ACK&#21709;&#24212;</text><path d="M81,295.3906 L81,320.3906 L202,320.3906 L202,305.3906 L192,295.3906 L81,295.3906 " fill="#FEFFDD" style="stroke:#181818;stroke-width:0.5;"/><path d="M192,295.3906 L192,305.3906 L202,305.3906 L192,295.3906 " fill="#FEFFDD" style="stroke:#181818;stroke-width:0.5;"/><text fill="#000000" font-family="sans-serif" font-size="13" lengthAdjust="spacing" textLength="100" x="87" y="312.4575">PSYNC-ACK&#21709;&#24212;</text><rect fill="#EEEEEE" height="3" style="stroke:#EEEEEE;stroke-width:1.0;" width="341" x="0" y="346.0898"/><line style="stroke:#000000;stroke-width:1.0;" x1="0" x2="341" y1="346.0898" y2="346.0898"/><line style="stroke:#000000;stroke-width:1.0;" x1="0" x2="341" y1="349.0898" y2="349.0898"/><rect fill="#EEEEEE" height="23.1328" style="stroke:#000000;stroke-width:2.0;" width="75" x="133" y="335.5234"/><text fill="#000000" font-family="sans-serif" font-size="13" font-weight="bold" lengthAdjust="spacing" textLength="56" x="139" y="351.5903">&#25968;&#25454;&#20256;&#36755;</text><path d="M34,375.6563 L111,375.6563 L111,382.7891 L101,392.7891 L34,392.7891 L34,375.6563 " fill="#EEEEEE" style="stroke:#000000;stroke-width:1.5;"/><rect fill="none" height="123.5313" style="stroke:#000000;stroke-width:1.5;" width="297" x="34" y="375.6563"/><text fill="#000000" font-family="sans-serif" font-size="13" font-weight="bold" lengthAdjust="spacing" textLength="32" x="49" y="388.7231">loop</text><text fill="#000000" font-family="sans-serif" font-size="11" font-weight="bold" lengthAdjust="spacing" textLength="87" x="126" y="387.8667">[&#25968;&#25454;&#32531;&#23384;&#21644;&#20256;&#36755;]</text><polygon fill="#181818" points="195.5,409.9219,205.5,413.9219,195.5,417.9219,199.5,413.9219" style="stroke:#181818;stroke-width:1.0;"/><line style="stroke:#181818;stroke-width:1.0;" x1="79.5" x2="201.5" y1="413.9219" y2="413.9219"/><text fill="#000000" font-family="sans-serif" font-size="13" lengthAdjust="spacing" textLength="78" x="86.5" y="408.856">&#21457;&#36865;&#32531;&#23384;&#25968;&#25454;</text><path d="M222,426.9219 L222,451.9219 L321,451.9219 L321,436.9219 L311,426.9219 L222,426.9219 " fill="#FEFFDD" style="stroke:#181818;stroke-width:0.5;"/><path d="M311,426.9219 L311,436.9219 L321,436.9219 L311,426.9219 " fill="#FEFFDD" style="stroke:#181818;stroke-width:0.5;"/><text fill="#000000" font-family="sans-serif" font-size="13" lengthAdjust="spacing" textLength="78" x="228" y="443.9888">&#25509;&#25910;&#32531;&#23384;&#25968;&#25454;</text><line style="stroke:#181818;stroke-width:1.0;" x1="217.5" x2="259.5" y1="478.1875" y2="478.1875"/><line style="stroke:#181818;stroke-width:1.0;" x1="259.5" x2="259.5" y1="478.1875" y2="491.1875"/><line style="stroke:#181818;stroke-width:1.0;" x1="218.5" x2="259.5" y1="491.1875" y2="491.1875"/><polygon fill="#181818" points="228.5,487.1875,218.5,491.1875,228.5,495.1875,224.5,491.1875" style="stroke:#181818;stroke-width:1.0;"/><text fill="#000000" font-family="sans-serif" font-size="13" lengthAdjust="spacing" textLength="78" x="224.5" y="473.1216">&#25191;&#34892;&#32531;&#23384;&#21629;&#20196;</text><rect fill="#EEEEEE" height="3" style="stroke:#EEEEEE;stroke-width:1.0;" width="341" x="0" y="526.7539"/><line style="stroke:#000000;stroke-width:1.0;" x1="0" x2="341" y1="526.7539" y2="526.7539"/><line style="stroke:#000000;stroke-width:1.0;" x1="0" x2="341" y1="529.7539" y2="529.7539"/><rect fill="#EEEEEE" height="23.1328" style="stroke:#000000;stroke-width:2.0;" width="103" x="119" y="516.1875"/><text fill="#000000" font-family="sans-serif" font-size="13" font-weight="bold" lengthAdjust="spacing" textLength="84" x="125" y="532.2544">&#23436;&#25104;&#22686;&#37327;&#22797;&#21046;</text><polygon fill="#181818" points="85.5,566.4531,75.5,570.4531,85.5,574.4531,81.5,570.4531" style="stroke:#181818;stroke-width:1.0;"/><line style="stroke:#181818;stroke-width:1.0;" x1="79.5" x2="211.5" y1="570.4531" y2="570.4531"/><text fill="#000000" font-family="sans-serif" font-size="13" lengthAdjust="spacing" textLength="104" x="91.5" y="565.3872">&#21457;&#36865;&#22797;&#21046;&#23436;&#25104;&#36890;&#30693;</text></g></svg>