<?xml version="1.0" encoding="us-ascii" standalone="no"?><svg xmlns="http://www.w3.org/2000/svg" xmlns:xlink="http://www.w3.org/1999/xlink" contentStyleType="text/css" height="461px" preserveAspectRatio="none" style="width:325px;height:461px;background:#FFFFFF;" version="1.1" viewBox="0 0 325 461" width="325px" zoomAndPan="magnify"><defs/><g><rect fill="none" height="148.4688" style="stroke:#000000;stroke-width:1.5;" width="308.5" x="10" y="127.4297"/><line style="stroke:#181818;stroke-width:0.5;stroke-dasharray:5.0,5.0;" x1="42" x2="42" y1="81.2969" y2="380.2969"/><line style="stroke:#181818;stroke-width:0.5;stroke-dasharray:5.0,5.0;" x1="144.5" x2="144.5" y1="81.2969" y2="380.2969"/><line style="stroke:#181818;stroke-width:0.5;stroke-dasharray:5.0,5.0;" x1="272.5" x2="272.5" y1="81.2969" y2="380.2969"/><text fill="#000000" font-family="sans-serif" font-size="14" lengthAdjust="spacing" textLength="39" x="20" y="77.9951">Client</text><ellipse cx="42.5" cy="13.5" fill="#E2E2F0" rx="8" ry="8" style="stroke:#181818;stroke-width:0.5;"/><path d="M42.5,21.5 L42.5,48.5 M29.5,29.5 L55.5,29.5 M42.5,48.5 L29.5,63.5 M42.5,48.5 L55.5,63.5 " fill="none" style="stroke:#181818;stroke-width:0.5;"/><text fill="#000000" font-family="sans-serif" font-size="14" lengthAdjust="spacing" textLength="39" x="20" y="392.292">Client</text><ellipse cx="42.5" cy="404.0938" fill="#E2E2F0" rx="8" ry="8" style="stroke:#181818;stroke-width:0.5;"/><path d="M42.5,412.0938 L42.5,439.0938 M29.5,420.0938 L55.5,420.0938 M42.5,439.0938 L29.5,454.0938 M42.5,439.0938 L55.5,454.0938 " fill="none" style="stroke:#181818;stroke-width:0.5;"/><rect fill="#E2E2F0" height="30.2969" rx="2.5" ry="2.5" style="stroke:#181818;stroke-width:0.5;" width="56" x="116.5" y="50"/><text fill="#000000" font-family="sans-serif" font-size="14" lengthAdjust="spacing" textLength="42" x="123.5" y="69.9951">cache</text><rect fill="#E2E2F0" height="30.2969" rx="2.5" ry="2.5" style="stroke:#181818;stroke-width:0.5;" width="56" x="116.5" y="379.2969"/><text fill="#000000" font-family="sans-serif" font-size="14" lengthAdjust="spacing" textLength="42" x="123.5" y="399.292">cache</text><text fill="#000000" font-family="sans-serif" font-size="14" lengthAdjust="spacing" textLength="66" x="236.5" y="77.9951">Database</text><path d="M254.5,29 C254.5,19 272.5,19 272.5,19 C272.5,19 290.5,19 290.5,29 L290.5,55 C290.5,65 272.5,65 272.5,65 C272.5,65 254.5,65 254.5,55 L254.5,29 " fill="#E2E2F0" style="stroke:#181818;stroke-width:1.5;"/><path d="M254.5,29 C254.5,39 272.5,39 272.5,39 C272.5,39 290.5,39 290.5,29 " fill="none" style="stroke:#181818;stroke-width:1.5;"/><text fill="#000000" font-family="sans-serif" font-size="14" lengthAdjust="spacing" textLength="66" x="236.5" y="392.292">Database</text><path d="M254.5,405.5938 C254.5,395.5938 272.5,395.5938 272.5,395.5938 C272.5,395.5938 290.5,395.5938 290.5,405.5938 L290.5,431.5938 C290.5,441.5938 272.5,441.5938 272.5,441.5938 C272.5,441.5938 254.5,441.5938 254.5,431.5938 L254.5,405.5938 " fill="#E2E2F0" style="stroke:#181818;stroke-width:1.5;"/><path d="M254.5,405.5938 C254.5,415.5938 272.5,415.5938 272.5,415.5938 C272.5,415.5938 290.5,415.5938 290.5,405.5938 " fill="none" style="stroke:#181818;stroke-width:1.5;"/><polygon fill="#181818" points="132.5,108.4297,142.5,112.4297,132.5,116.4297,136.5,112.4297" style="stroke:#181818;stroke-width:1.0;"/><line style="stroke:#181818;stroke-width:1.0;" x1="42.5" x2="138.5" y1="112.4297" y2="112.4297"/><text fill="#000000" font-family="sans-serif" font-size="13" lengthAdjust="spacing" textLength="53" x="49.5" y="107.3638">Get &#25968;&#25454;</text><path d="M10,127.4297 L74,127.4297 L74,134.5625 L64,144.5625 L10,144.5625 L10,127.4297 " fill="#EEEEEE" style="stroke:#000000;stroke-width:1.5;"/><rect fill="none" height="148.4688" style="stroke:#000000;stroke-width:1.5;" width="308.5" x="10" y="127.4297"/><text fill="#000000" font-family="sans-serif" font-size="13" font-weight="bold" lengthAdjust="spacing" textLength="19" x="25" y="140.4966">alt</text><text fill="#000000" font-family="sans-serif" font-size="11" font-weight="bold" lengthAdjust="spacing" textLength="76" x="89" y="139.6401">[&#32531;&#23384;&#20013;&#26377;&#25968;&#25454;]</text><polygon fill="#181818" points="53.5,161.6953,43.5,165.6953,53.5,169.6953,49.5,165.6953" style="stroke:#181818;stroke-width:1.0;"/><line style="stroke:#181818;stroke-width:1.0;" x1="47.5" x2="143.5" y1="165.6953" y2="165.6953"/><text fill="#000000" font-family="sans-serif" font-size="13" lengthAdjust="spacing" textLength="78" x="59.5" y="160.6294">&#36820;&#22238;&#32531;&#23384;&#25968;&#25454;</text><line style="stroke:#000000;stroke-width:1.0;stroke-dasharray:2.0,2.0;" x1="10" x2="318.5" y1="174.6953" y2="174.6953"/><text fill="#000000" font-family="sans-serif" font-size="11" font-weight="bold" lengthAdjust="spacing" textLength="76" x="15" y="184.9058">[&#32531;&#23384;&#20013;&#26080;&#25968;&#25454;]</text><polygon fill="#181818" points="260.5,205.6328,270.5,209.6328,260.5,213.6328,264.5,209.6328" style="stroke:#181818;stroke-width:1.0;"/><line style="stroke:#181818;stroke-width:1.0;" x1="144.5" x2="266.5" y1="209.6328" y2="209.6328"/><text fill="#000000" font-family="sans-serif" font-size="13" lengthAdjust="spacing" textLength="104" x="151.5" y="204.5669">&#20174;&#25968;&#25454;&#24211;&#21152;&#36733;&#25968;&#25454;</text><polygon fill="#181818" points="155.5,234.7656,145.5,238.7656,155.5,242.7656,151.5,238.7656" style="stroke:#181818;stroke-width:1.0;"/><line style="stroke:#181818;stroke-width:1.0;" x1="149.5" x2="271.5" y1="238.7656" y2="238.7656"/><text fill="#000000" font-family="sans-serif" font-size="13" lengthAdjust="spacing" textLength="91" x="161.5" y="233.6997">&#36820;&#22238;&#25968;&#25454;&#24211;&#25968;&#25454;</text><polygon fill="#181818" points="53.5,263.8984,43.5,267.8984,53.5,271.8984,49.5,267.8984" style="stroke:#181818;stroke-width:1.0;"/><line style="stroke:#181818;stroke-width:1.0;" x1="47.5" x2="143.5" y1="267.8984" y2="267.8984"/><text fill="#000000" font-family="sans-serif" font-size="13" lengthAdjust="spacing" textLength="52" x="59.5" y="262.8325">&#36820;&#22238;&#25968;&#25454;</text><polygon fill="#181818" points="132.5,300.0313,142.5,304.0313,132.5,308.0313,136.5,304.0313" style="stroke:#181818;stroke-width:1.0;"/><line style="stroke:#181818;stroke-width:1.0;" x1="42.5" x2="138.5" y1="304.0313" y2="304.0313"/><text fill="#000000" font-family="sans-serif" font-size="13" lengthAdjust="spacing" textLength="51" x="49.5" y="298.9653">Put &#25968;&#25454;</text><polygon fill="#181818" points="260.5,329.1641,270.5,333.1641,260.5,337.1641,264.5,333.1641" style="stroke:#181818;stroke-width:1.0;"/><line style="stroke:#181818;stroke-width:1.0;" x1="144.5" x2="266.5" y1="333.1641" y2="333.1641"/><text fill="#000000" font-family="sans-serif" font-size="13" lengthAdjust="spacing" textLength="65" x="151.5" y="328.0981">&#20889;&#20837;&#25968;&#25454;&#24211;</text><polygon fill="#181818" points="53.5,358.2969,43.5,362.2969,53.5,366.2969,49.5,362.2969" style="stroke:#181818;stroke-width:1.0;"/><line style="stroke:#181818;stroke-width:1.0;" x1="47.5" x2="143.5" y1="362.2969" y2="362.2969"/><text fill="#000000" font-family="sans-serif" font-size="13" lengthAdjust="spacing" textLength="26" x="59.5" y="357.231">&#36820;&#22238;</text></g></svg>