<?xml version="1.0" encoding="us-ascii" standalone="no"?><svg xmlns="http://www.w3.org/2000/svg" xmlns:xlink="http://www.w3.org/1999/xlink" contentStyleType="text/css" height="1023px" preserveAspectRatio="none" style="width:633px;height:1023px;background:#FFFFFF;" version="1.1" viewBox="0 0 633 1023" width="633px" zoomAndPan="magnify"><defs/><g><text fill="#000000" font-family="sans-serif" font-size="14" font-weight="bold" lengthAdjust="spacing" textLength="133" x="246" y="27.9951">Redis&#20840;&#37327;&#22797;&#21046;&#27969;&#31243;</text><rect fill="#FFFFFF" height="755.7891" style="stroke:#181818;stroke-width:1.0;" width="10" x="228.5" y="83.5938"/><rect fill="#FFFFFF" height="755.7891" style="stroke:#181818;stroke-width:1.0;" width="10" x="403.5" y="83.5938"/><rect fill="none" height="123.5313" style="stroke:#000000;stroke-width:1.5;" width="334" x="193" y="560.3203"/><line style="stroke:#181818;stroke-width:0.5;stroke-dasharray:5.0,5.0;" x1="233" x2="233" y1="73.5938" y2="988.1797"/><line style="stroke:#181818;stroke-width:0.5;stroke-dasharray:5.0,5.0;" x1="408.5" x2="408.5" y1="73.5938" y2="988.1797"/><rect fill="#E2E2F0" height="30.2969" rx="2.5" ry="2.5" style="stroke:#181818;stroke-width:0.5;" width="61" x="203" y="42.2969"/><text fill="#000000" font-family="sans-serif" font-size="14" lengthAdjust="spacing" textLength="47" x="210" y="62.292">Master</text><rect fill="#E2E2F0" height="30.2969" rx="2.5" ry="2.5" style="stroke:#181818;stroke-width:0.5;" width="61" x="203" y="987.1797"/><text fill="#000000" font-family="sans-serif" font-size="14" lengthAdjust="spacing" textLength="47" x="210" y="1007.1748">Master</text><rect fill="#E2E2F0" height="30.2969" rx="2.5" ry="2.5" style="stroke:#181818;stroke-width:0.5;" width="50" x="383.5" y="42.2969"/><text fill="#000000" font-family="sans-serif" font-size="14" lengthAdjust="spacing" textLength="36" x="390.5" y="62.292">Slave</text><rect fill="#E2E2F0" height="30.2969" rx="2.5" ry="2.5" style="stroke:#181818;stroke-width:0.5;" width="50" x="383.5" y="987.1797"/><text fill="#000000" font-family="sans-serif" font-size="14" lengthAdjust="spacing" textLength="36" x="390.5" y="1007.1748">Slave</text><rect fill="#FFFFFF" height="755.7891" style="stroke:#181818;stroke-width:1.0;" width="10" x="228.5" y="83.5938"/><rect fill="#FFFFFF" height="755.7891" style="stroke:#181818;stroke-width:1.0;" width="10" x="403.5" y="83.5938"/><path d="M163,88.5938 L163,113.5938 L223,113.5938 L223,98.5938 L213,88.5938 L163,88.5938 " fill="#FEFFDD" style="stroke:#181818;stroke-width:0.5;"/><path d="M213,88.5938 L213,98.5938 L223,98.5938 L213,88.5938 " fill="#FEFFDD" style="stroke:#181818;stroke-width:0.5;"/><text fill="#000000" font-family="sans-serif" font-size="13" lengthAdjust="spacing" textLength="39" x="169" y="105.6606">&#20027;&#33410;&#28857;</text><path d="M418,123.7266 L418,148.7266 L478,148.7266 L478,133.7266 L468,123.7266 L418,123.7266 " fill="#FEFFDD" style="stroke:#181818;stroke-width:0.5;"/><path d="M468,123.7266 L468,133.7266 L478,133.7266 L468,123.7266 " fill="#FEFFDD" style="stroke:#181818;stroke-width:0.5;"/><text fill="#000000" font-family="sans-serif" font-size="13" lengthAdjust="spacing" textLength="39" x="424" y="140.7935">&#20174;&#33410;&#28857;</text><rect fill="#EEEEEE" height="3" style="stroke:#EEEEEE;stroke-width:1.0;" width="626" x="0" y="174.4258"/><line style="stroke:#000000;stroke-width:1.0;" x1="0" x2="626" y1="174.4258" y2="174.4258"/><line style="stroke:#000000;stroke-width:1.0;" x1="0" x2="626" y1="177.4258" y2="177.4258"/><rect fill="#EEEEEE" height="23.1328" style="stroke:#000000;stroke-width:2.0;" width="75" x="275.5" y="163.8594"/><text fill="#000000" font-family="sans-serif" font-size="13" font-weight="bold" lengthAdjust="spacing" textLength="56" x="281.5" y="179.9263">&#24314;&#31435;&#36830;&#25509;</text><polygon fill="#181818" points="391.5,214.125,401.5,218.125,391.5,222.125,395.5,218.125" style="stroke:#181818;stroke-width:1.0;"/><line style="stroke:#181818;stroke-width:1.0;" x1="238.5" x2="397.5" y1="218.125" y2="218.125"/><text fill="#000000" font-family="sans-serif" font-size="13" lengthAdjust="spacing" textLength="69" x="245.5" y="213.0591">PSYNC&#35831;&#27714;</text><path d="M418,231.125 L418,256.125 L508,256.125 L508,241.125 L498,231.125 L418,231.125 " fill="#FEFFDD" style="stroke:#181818;stroke-width:0.5;"/><path d="M498,231.125 L498,241.125 L508,241.125 L498,231.125 " fill="#FEFFDD" style="stroke:#181818;stroke-width:0.5;"/><text fill="#000000" font-family="sans-serif" font-size="13" lengthAdjust="spacing" textLength="69" x="424" y="248.1919">PSYNC&#35831;&#27714;</text><polygon fill="#181818" points="249.5,278.3906,239.5,282.3906,249.5,286.3906,245.5,282.3906" style="stroke:#181818;stroke-width:1.0;"/><line style="stroke:#181818;stroke-width:1.0;" x1="243.5" x2="402.5" y1="282.3906" y2="282.3906"/><text fill="#000000" font-family="sans-serif" font-size="13" lengthAdjust="spacing" textLength="100" x="255.5" y="277.3247">PSYNC-ACK&#21709;&#24212;</text><path d="M277,295.3906 L277,320.3906 L398,320.3906 L398,305.3906 L388,295.3906 L277,295.3906 " fill="#FEFFDD" style="stroke:#181818;stroke-width:0.5;"/><path d="M388,295.3906 L388,305.3906 L398,305.3906 L388,295.3906 " fill="#FEFFDD" style="stroke:#181818;stroke-width:0.5;"/><text fill="#000000" font-family="sans-serif" font-size="13" lengthAdjust="spacing" textLength="100" x="283" y="312.4575">PSYNC-ACK&#21709;&#24212;</text><rect fill="#EEEEEE" height="3" style="stroke:#EEEEEE;stroke-width:1.0;" width="626" x="0" y="346.0898"/><line style="stroke:#000000;stroke-width:1.0;" x1="0" x2="626" y1="346.0898" y2="346.0898"/><line style="stroke:#000000;stroke-width:1.0;" x1="0" x2="626" y1="349.0898" y2="349.0898"/><rect fill="#EEEEEE" height="23.1328" style="stroke:#000000;stroke-width:2.0;" width="106" x="260" y="335.5234"/><text fill="#000000" font-family="sans-serif" font-size="13" font-weight="bold" lengthAdjust="spacing" textLength="87" x="266" y="351.5903">&#29983;&#25104;RDB&#25991;&#20214;</text><line style="stroke:#181818;stroke-width:1.0;" x1="238.5" x2="280.5" y1="389.7891" y2="389.7891"/><line style="stroke:#181818;stroke-width:1.0;" x1="280.5" x2="280.5" y1="389.7891" y2="402.7891"/><line style="stroke:#181818;stroke-width:1.0;" x1="239.5" x2="280.5" y1="402.7891" y2="402.7891"/><polygon fill="#181818" points="249.5,398.7891,239.5,402.7891,249.5,406.7891,245.5,402.7891" style="stroke:#181818;stroke-width:1.0;"/><text fill="#000000" font-family="sans-serif" font-size="13" lengthAdjust="spacing" textLength="151" x="245.5" y="384.7231">&#25191;&#34892;bgsave&#29983;&#25104;RDB&#25991;&#20214;</text><path d="M243,415.7891 L243,440.7891 L336,440.7891 L336,425.7891 L326,415.7891 L243,415.7891 " fill="#FEFFDD" style="stroke:#181818;stroke-width:0.5;"/><path d="M326,415.7891 L326,425.7891 L336,425.7891 L326,415.7891 " fill="#FEFFDD" style="stroke:#181818;stroke-width:0.5;"/><text fill="#000000" font-family="sans-serif" font-size="13" lengthAdjust="spacing" textLength="72" x="249" y="432.856">&#25191;&#34892;bgsave</text><polygon fill="#181818" points="391.5,463.0547,401.5,467.0547,391.5,471.0547,395.5,467.0547" style="stroke:#181818;stroke-width:1.0;"/><line style="stroke:#181818;stroke-width:1.0;" x1="238.5" x2="397.5" y1="467.0547" y2="467.0547"/><text fill="#000000" font-family="sans-serif" font-size="13" lengthAdjust="spacing" textLength="131" x="245.5" y="461.9888">&#21457;&#36865;RDB&#25991;&#20214;&#32473;&#20174;&#33410;&#28857;</text><path d="M418,480.0547 L418,505.0547 L518,505.0547 L518,490.0547 L508,480.0547 L418,480.0547 " fill="#FEFFDD" style="stroke:#181818;stroke-width:0.5;"/><path d="M508,480.0547 L508,490.0547 L518,490.0547 L508,480.0547 " fill="#FEFFDD" style="stroke:#181818;stroke-width:0.5;"/><text fill="#000000" font-family="sans-serif" font-size="13" lengthAdjust="spacing" textLength="79" x="424" y="497.1216">&#25509;&#25910;RDB&#25991;&#20214;</text><rect fill="#EEEEEE" height="3" style="stroke:#EEEEEE;stroke-width:1.0;" width="626" x="0" y="530.7539"/><line style="stroke:#000000;stroke-width:1.0;" x1="0" x2="626" y1="530.7539" y2="530.7539"/><line style="stroke:#000000;stroke-width:1.0;" x1="0" x2="626" y1="533.7539" y2="533.7539"/><rect fill="#EEEEEE" height="23.1328" style="stroke:#000000;stroke-width:2.0;" width="75" x="275.5" y="520.1875"/><text fill="#000000" font-family="sans-serif" font-size="13" font-weight="bold" lengthAdjust="spacing" textLength="56" x="281.5" y="536.2544">&#25968;&#25454;&#20256;&#36755;</text><path d="M193,560.3203 L270,560.3203 L270,567.4531 L260,577.4531 L193,577.4531 L193,560.3203 " fill="#EEEEEE" style="stroke:#000000;stroke-width:1.5;"/><rect fill="none" height="123.5313" style="stroke:#000000;stroke-width:1.5;" width="334" x="193" y="560.3203"/><text fill="#000000" font-family="sans-serif" font-size="13" font-weight="bold" lengthAdjust="spacing" textLength="32" x="208" y="573.3872">loop</text><text fill="#000000" font-family="sans-serif" font-size="11" font-weight="bold" lengthAdjust="spacing" textLength="87" x="285" y="572.5308">[&#25968;&#25454;&#32531;&#23384;&#21644;&#20256;&#36755;]</text><polygon fill="#181818" points="391.5,594.5859,401.5,598.5859,391.5,602.5859,395.5,598.5859" style="stroke:#181818;stroke-width:1.0;"/><line style="stroke:#181818;stroke-width:1.0;" x1="238.5" x2="397.5" y1="598.5859" y2="598.5859"/><text fill="#000000" font-family="sans-serif" font-size="13" lengthAdjust="spacing" textLength="78" x="245.5" y="593.52">&#21457;&#36865;&#32531;&#23384;&#25968;&#25454;</text><path d="M418,611.5859 L418,636.5859 L517,636.5859 L517,621.5859 L507,611.5859 L418,611.5859 " fill="#FEFFDD" style="stroke:#181818;stroke-width:0.5;"/><path d="M507,611.5859 L507,621.5859 L517,621.5859 L507,611.5859 " fill="#FEFFDD" style="stroke:#181818;stroke-width:0.5;"/><text fill="#000000" font-family="sans-serif" font-size="13" lengthAdjust="spacing" textLength="78" x="424" y="628.6528">&#25509;&#25910;&#32531;&#23384;&#25968;&#25454;</text><line style="stroke:#181818;stroke-width:1.0;" x1="413.5" x2="455.5" y1="662.8516" y2="662.8516"/><line style="stroke:#181818;stroke-width:1.0;" x1="455.5" x2="455.5" y1="662.8516" y2="675.8516"/><line style="stroke:#181818;stroke-width:1.0;" x1="414.5" x2="455.5" y1="675.8516" y2="675.8516"/><polygon fill="#181818" points="424.5,671.8516,414.5,675.8516,424.5,679.8516,420.5,675.8516" style="stroke:#181818;stroke-width:1.0;"/><text fill="#000000" font-family="sans-serif" font-size="13" lengthAdjust="spacing" textLength="78" x="420.5" y="657.7856">&#25191;&#34892;&#32531;&#23384;&#21629;&#20196;</text><rect fill="#EEEEEE" height="3" style="stroke:#EEEEEE;stroke-width:1.0;" width="626" x="0" y="711.418"/><line style="stroke:#000000;stroke-width:1.0;" x1="0" x2="626" y1="711.418" y2="711.418"/><line style="stroke:#000000;stroke-width:1.0;" x1="0" x2="626" y1="714.418" y2="714.418"/><rect fill="#EEEEEE" height="23.1328" style="stroke:#000000;stroke-width:2.0;" width="103" x="261.5" y="700.8516"/><text fill="#000000" font-family="sans-serif" font-size="13" font-weight="bold" lengthAdjust="spacing" textLength="84" x="267.5" y="716.9185">&#23436;&#25104;&#20840;&#37327;&#22797;&#21046;</text><line style="stroke:#181818;stroke-width:1.0;" x1="413.5" x2="455.5" y1="755.1172" y2="755.1172"/><line style="stroke:#181818;stroke-width:1.0;" x1="455.5" x2="455.5" y1="755.1172" y2="768.1172"/><line style="stroke:#181818;stroke-width:1.0;" x1="414.5" x2="455.5" y1="768.1172" y2="768.1172"/><polygon fill="#181818" points="424.5,764.1172,414.5,768.1172,424.5,772.1172,420.5,768.1172" style="stroke:#181818;stroke-width:1.0;"/><text fill="#000000" font-family="sans-serif" font-size="13" lengthAdjust="spacing" textLength="79" x="420.5" y="750.0513">&#21152;&#36733;RDB&#25991;&#20214;</text><line style="stroke:#181818;stroke-width:1.0;" x1="413.5" x2="455.5" y1="797.25" y2="797.25"/><line style="stroke:#181818;stroke-width:1.0;" x1="455.5" x2="455.5" y1="797.25" y2="810.25"/><line style="stroke:#181818;stroke-width:1.0;" x1="414.5" x2="455.5" y1="810.25" y2="810.25"/><polygon fill="#181818" points="424.5,806.25,414.5,810.25,424.5,814.25,420.5,810.25" style="stroke:#181818;stroke-width:1.0;"/><text fill="#000000" font-family="sans-serif" font-size="13" lengthAdjust="spacing" textLength="78" x="420.5" y="792.1841">&#24212;&#29992;&#32531;&#23384;&#21629;&#20196;</text><polygon fill="#181818" points="244.5,835.3828,234.5,839.3828,244.5,843.3828,240.5,839.3828" style="stroke:#181818;stroke-width:1.0;"/><line style="stroke:#181818;stroke-width:1.0;" x1="238.5" x2="407.5" y1="839.3828" y2="839.3828"/><text fill="#000000" font-family="sans-serif" font-size="13" lengthAdjust="spacing" textLength="104" x="250.5" y="834.3169">&#21457;&#36865;&#22797;&#21046;&#23436;&#25104;&#36890;&#30693;</text><path d="M5,852.3828 L5,907.3828 L229,907.3828 L229,862.3828 L219,852.3828 L5,852.3828 " fill="#FEFFDD" style="stroke:#181818;stroke-width:0.5;"/><path d="M219,852.3828 L219,862.3828 L229,862.3828 L219,852.3828 " fill="#FEFFDD" style="stroke:#181818;stroke-width:0.5;"/><text fill="#000000" font-family="sans-serif" font-size="13" lengthAdjust="spacing" textLength="86" x="11" y="869.4497">PSYNC &#35831;&#27714;&#65306;</text><text fill="#000000" font-family="sans-serif" font-size="13" lengthAdjust="spacing" textLength="203" x="11" y="884.5825">- &#20027;&#33410;&#28857;&#21457;&#36865; PSYNC &#35831;&#27714;&#32473;&#20174;&#33410;&#28857;</text><text fill="#000000" font-family="sans-serif" font-size="13" lengthAdjust="spacing" textLength="126" x="11" y="899.7153">- &#35302;&#21457;&#20840;&#37327;&#25110;&#37096;&#20998;&#22797;&#21046;</text><path d="M413,917.7813 L413,972.7813 L621,972.7813 L621,927.7813 L611,917.7813 L413,917.7813 " fill="#FEFFDD" style="stroke:#181818;stroke-width:0.5;"/><path d="M611,917.7813 L611,927.7813 L621,927.7813 L611,917.7813 " fill="#FEFFDD" style="stroke:#181818;stroke-width:0.5;"/><text fill="#000000" font-family="sans-serif" font-size="13" lengthAdjust="spacing" textLength="70" x="419" y="934.8481">RDB &#24555;&#29031;&#65306;</text><text fill="#000000" font-family="sans-serif" font-size="13" lengthAdjust="spacing" textLength="187" x="419" y="949.981">- &#20174;&#33410;&#28857;&#25509;&#25910;&#20027;&#33410;&#28857;&#30340; RDB &#24555;&#29031;</text><text fill="#000000" font-family="sans-serif" font-size="13" lengthAdjust="spacing" textLength="113" x="419" y="965.1138">- &#36827;&#34892;&#25345;&#20037;&#21270;&#21644;&#21152;&#36733;</text></g></svg>