<?xml version="1.0" encoding="us-ascii" standalone="no"?><svg xmlns="http://www.w3.org/2000/svg" xmlns:xlink="http://www.w3.org/1999/xlink" contentStyleType="text/css" height="853px" preserveAspectRatio="none" style="width:983px;height:853px;background:#FFFFFF;" version="1.1" viewBox="0 0 983 853" width="983px" zoomAndPan="magnify"><defs/><g><rect fill="none" height="473.4063" style="stroke:#000000;stroke-width:1.5;" width="590.5" x="229" y="176.9609"/><rect fill="none" height="369.2031" style="stroke:#000000;stroke-width:1.5;" width="570.5" x="239" y="274.1641"/><rect fill="none" height="206.7344" style="stroke:#000000;stroke-width:1.5;" width="453.5" x="346" y="429.6328"/><line style="stroke:#181818;stroke-width:0.5;stroke-dasharray:5.0,5.0;" x1="213" x2="213" y1="36.2969" y2="818.1641"/><line style="stroke:#181818;stroke-width:0.5;stroke-dasharray:5.0,5.0;" x1="289" x2="289" y1="36.2969" y2="818.1641"/><line style="stroke:#181818;stroke-width:0.5;stroke-dasharray:5.0,5.0;" x1="391" x2="391" y1="36.2969" y2="818.1641"/><line style="stroke:#181818;stroke-width:0.5;stroke-dasharray:5.0,5.0;" x1="478" x2="478" y1="36.2969" y2="818.1641"/><line style="stroke:#181818;stroke-width:0.5;stroke-dasharray:5.0,5.0;" x1="593" x2="593" y1="36.2969" y2="818.1641"/><line style="stroke:#181818;stroke-width:0.5;stroke-dasharray:5.0,5.0;" x1="741.5" x2="741.5" y1="36.2969" y2="818.1641"/><rect fill="#E2E2F0" height="30.2969" rx="2.5" ry="2.5" style="stroke:#181818;stroke-width:0.5;" width="52" x="187" y="5"/><text fill="#000000" font-family="sans-serif" font-size="14" lengthAdjust="spacing" textLength="38" x="194" y="24.9951">Nginx</text><rect fill="#E2E2F0" height="30.2969" rx="2.5" ry="2.5" style="stroke:#181818;stroke-width:0.5;" width="52" x="187" y="817.1641"/><text fill="#000000" font-family="sans-serif" font-size="14" lengthAdjust="spacing" textLength="38" x="194" y="837.1592">Nginx</text><rect fill="#E2E2F0" height="30.2969" rx="2.5" ry="2.5" style="stroke:#181818;stroke-width:0.5;" width="80" x="249" y="5"/><text fill="#000000" font-family="sans-serif" font-size="14" lengthAdjust="spacing" textLength="66" x="256" y="24.9951">&#24212;&#29992;Nginx</text><rect fill="#E2E2F0" height="30.2969" rx="2.5" ry="2.5" style="stroke:#181818;stroke-width:0.5;" width="80" x="249" y="817.1641"/><text fill="#000000" font-family="sans-serif" font-size="14" lengthAdjust="spacing" textLength="66" x="256" y="837.1592">&#24212;&#29992;Nginx</text><rect fill="#E2E2F0" height="30.2969" rx="2.5" ry="2.5" style="stroke:#181818;stroke-width:0.5;" width="70" x="356" y="5"/><text fill="#000000" font-family="sans-serif" font-size="14" lengthAdjust="spacing" textLength="56" x="363" y="24.9951">&#26412;&#22320;&#32531;&#23384;</text><rect fill="#E2E2F0" height="30.2969" rx="2.5" ry="2.5" style="stroke:#181818;stroke-width:0.5;" width="70" x="356" y="817.1641"/><text fill="#000000" font-family="sans-serif" font-size="14" lengthAdjust="spacing" textLength="56" x="363" y="837.1592">&#26412;&#22320;&#32531;&#23384;</text><rect fill="#E2E2F0" height="30.2969" rx="2.5" ry="2.5" style="stroke:#181818;stroke-width:0.5;" width="84" x="436" y="5"/><text fill="#000000" font-family="sans-serif" font-size="14" lengthAdjust="spacing" textLength="70" x="443" y="24.9951">&#20998;&#24067;&#24335;&#32531;&#23384;</text><rect fill="#E2E2F0" height="30.2969" rx="2.5" ry="2.5" style="stroke:#181818;stroke-width:0.5;" width="84" x="436" y="817.1641"/><text fill="#000000" font-family="sans-serif" font-size="14" lengthAdjust="spacing" textLength="70" x="443" y="837.1592">&#20998;&#24067;&#24335;&#32531;&#23384;</text><rect fill="#E2E2F0" height="30.2969" rx="2.5" ry="2.5" style="stroke:#181818;stroke-width:0.5;" width="94" x="546" y="5"/><text fill="#000000" font-family="sans-serif" font-size="14" lengthAdjust="spacing" textLength="80" x="553" y="24.9951">Tomcat&#38598;&#32676;</text><rect fill="#E2E2F0" height="30.2969" rx="2.5" ry="2.5" style="stroke:#181818;stroke-width:0.5;" width="94" x="546" y="817.1641"/><text fill="#000000" font-family="sans-serif" font-size="14" lengthAdjust="spacing" textLength="80" x="553" y="837.1592">Tomcat&#38598;&#32676;</text><rect fill="#E2E2F0" height="30.2969" rx="2.5" ry="2.5" style="stroke:#181818;stroke-width:0.5;" width="95" x="694.5" y="5"/><text fill="#000000" font-family="sans-serif" font-size="14" lengthAdjust="spacing" textLength="81" x="701.5" y="24.9951">&#20027;Redis&#38598;&#32676;</text><rect fill="#E2E2F0" height="30.2969" rx="2.5" ry="2.5" style="stroke:#181818;stroke-width:0.5;" width="95" x="694.5" y="817.1641"/><text fill="#000000" font-family="sans-serif" font-size="14" lengthAdjust="spacing" textLength="81" x="701.5" y="837.1592">&#20027;Redis&#38598;&#32676;</text><path d="M5,51.2969 L5,106.2969 L208,106.2969 L208,61.2969 L198,51.2969 L5,51.2969 " fill="#FEFFDD" style="stroke:#181818;stroke-width:0.5;"/><path d="M198,51.2969 L198,61.2969 L208,61.2969 L198,51.2969 " fill="#FEFFDD" style="stroke:#181818;stroke-width:0.5;"/><text fill="#000000" font-family="sans-serif" font-size="13" lengthAdjust="spacing" textLength="52" x="11" y="68.3638">&#36127;&#36733;&#22343;&#34913;</text><text fill="#000000" font-family="sans-serif" font-size="13" lengthAdjust="spacing" textLength="174" x="11" y="83.4966">++&#36718;&#35810;&#25110;&#19968;&#33268;&#24615;&#21704;&#24076;&#31639;&#27861;++</text><text fill="#000000" font-family="sans-serif" font-size="13" lengthAdjust="spacing" textLength="182" x="11" y="98.6294">&#22343;&#34913;&#35831;&#27714;&#27969;&#37327;&#12289;&#25552;&#39640;&#31995;&#32479;&#21487;&#29992;&#24615;</text><polygon fill="#181818" points="277,128.8281,287,132.8281,277,136.8281,281,132.8281" style="stroke:#181818;stroke-width:1.0;"/><line style="stroke:#181818;stroke-width:1.0;" x1="213" x2="283" y1="132.8281" y2="132.8281"/><text fill="#000000" font-family="sans-serif" font-size="13" lengthAdjust="spacing" textLength="26" x="220" y="127.7622">&#35831;&#27714;</text><polygon fill="#181818" points="379,157.9609,389,161.9609,379,165.9609,383,161.9609" style="stroke:#181818;stroke-width:1.0;"/><line style="stroke:#181818;stroke-width:1.0;" x1="289" x2="385" y1="161.9609" y2="161.9609"/><text fill="#000000" font-family="sans-serif" font-size="13" lengthAdjust="spacing" textLength="78" x="296" y="156.895">&#35835;&#21462;&#26412;&#22320;&#32531;&#23384;</text><path d="M229,176.9609 L293,176.9609 L293,184.0938 L283,194.0938 L229,194.0938 L229,176.9609 " fill="#EEEEEE" style="stroke:#000000;stroke-width:1.5;"/><rect fill="none" height="473.4063" style="stroke:#000000;stroke-width:1.5;" width="590.5" x="229" y="176.9609"/><text fill="#000000" font-family="sans-serif" font-size="13" font-weight="bold" lengthAdjust="spacing" textLength="19" x="244" y="190.0278">alt</text><text fill="#000000" font-family="sans-serif" font-size="11" font-weight="bold" lengthAdjust="spacing" textLength="76" x="308" y="189.1714">[&#26412;&#22320;&#32531;&#23384;&#21629;&#20013;]</text><polygon fill="#181818" points="300,211.2266,290,215.2266,300,219.2266,296,215.2266" style="stroke:#181818;stroke-width:1.0;"/><line style="stroke:#181818;stroke-width:1.0;stroke-dasharray:2.0,2.0;" x1="294" x2="390" y1="215.2266" y2="215.2266"/><text fill="#000000" font-family="sans-serif" font-size="13" lengthAdjust="spacing" textLength="78" x="306" y="210.1606">&#36820;&#22238;&#32531;&#23384;&#25968;&#25454;</text><line style="stroke:#000000;stroke-width:1.0;stroke-dasharray:2.0,2.0;" x1="229" x2="819.5" y1="224.2266" y2="224.2266"/><text fill="#000000" font-family="sans-serif" font-size="11" font-weight="bold" lengthAdjust="spacing" textLength="87" x="234" y="234.437">[&#26412;&#22320;&#32531;&#23384;&#26410;&#21629;&#20013;]</text><polygon fill="#181818" points="466,255.1641,476,259.1641,466,263.1641,470,259.1641" style="stroke:#181818;stroke-width:1.0;"/><line style="stroke:#181818;stroke-width:1.0;" x1="289" x2="472" y1="259.1641" y2="259.1641"/><text fill="#000000" font-family="sans-serif" font-size="13" lengthAdjust="spacing" textLength="91" x="296" y="254.0981">&#35835;&#21462;&#20998;&#24067;&#24335;&#32531;&#23384;</text><path d="M239,274.1641 L303,274.1641 L303,281.2969 L293,291.2969 L239,291.2969 L239,274.1641 " fill="#EEEEEE" style="stroke:#000000;stroke-width:1.5;"/><rect fill="none" height="369.2031" style="stroke:#000000;stroke-width:1.5;" width="570.5" x="239" y="274.1641"/><text fill="#000000" font-family="sans-serif" font-size="13" font-weight="bold" lengthAdjust="spacing" textLength="19" x="254" y="287.231">alt</text><text fill="#000000" font-family="sans-serif" font-size="11" font-weight="bold" lengthAdjust="spacing" textLength="123" x="318" y="286.3745">[++&#20998;&#24067;&#24335;&#32531;&#23384;&#21629;&#20013;++]</text><polygon fill="#181818" points="300,308.4297,290,312.4297,300,316.4297,296,312.4297" style="stroke:#181818;stroke-width:1.0;"/><line style="stroke:#181818;stroke-width:1.0;stroke-dasharray:2.0,2.0;" x1="294" x2="477" y1="312.4297" y2="312.4297"/><text fill="#000000" font-family="sans-serif" font-size="13" lengthAdjust="spacing" textLength="78" x="306" y="307.3638">&#36820;&#22238;&#32531;&#23384;&#25968;&#25454;</text><polygon fill="#181818" points="379,337.5625,389,341.5625,379,345.5625,383,341.5625" style="stroke:#181818;stroke-width:1.0;"/><line style="stroke:#181818;stroke-width:1.0;" x1="289" x2="385" y1="341.5625" y2="341.5625"/><text fill="#000000" font-family="sans-serif" font-size="13" lengthAdjust="spacing" textLength="78" x="296" y="336.4966">&#20889;&#20837;&#26412;&#22320;&#32531;&#23384;</text><line style="stroke:#000000;stroke-width:1.0;stroke-dasharray:2.0,2.0;" x1="239" x2="809.5" y1="350.5625" y2="350.5625"/><text fill="#000000" font-family="sans-serif" font-size="11" font-weight="bold" lengthAdjust="spacing" textLength="98" x="244" y="360.7729">[&#20998;&#24067;&#24335;&#32531;&#23384;&#26410;&#21629;&#20013;]</text><polygon fill="#181818" points="581,381.5,591,385.5,581,389.5,585,385.5" style="stroke:#181818;stroke-width:1.0;"/><line style="stroke:#181818;stroke-width:1.0;" x1="289" x2="587" y1="385.5" y2="385.5"/><text fill="#000000" font-family="sans-serif" font-size="13" lengthAdjust="spacing" textLength="113" x="296" y="380.4341">&#22238;&#28304;&#21040;Tomcat&#38598;&#32676;</text><polygon fill="#181818" points="402,410.6328,392,414.6328,402,418.6328,398,414.6328" style="stroke:#181818;stroke-width:1.0;"/><line style="stroke:#181818;stroke-width:1.0;" x1="396" x2="592" y1="414.6328" y2="414.6328"/><text fill="#000000" font-family="sans-serif" font-size="13" lengthAdjust="spacing" textLength="91" x="408" y="409.5669">&#35835;&#21462;&#26412;&#22320;&#22534;&#32531;&#23384;</text><path d="M346,429.6328 L410,429.6328 L410,436.7656 L400,446.7656 L346,446.7656 L346,429.6328 " fill="#EEEEEE" style="stroke:#000000;stroke-width:1.5;"/><rect fill="none" height="206.7344" style="stroke:#000000;stroke-width:1.5;" width="453.5" x="346" y="429.6328"/><text fill="#000000" font-family="sans-serif" font-size="13" font-weight="bold" lengthAdjust="spacing" textLength="19" x="361" y="442.6997">alt</text><text fill="#000000" font-family="sans-serif" font-size="11" font-weight="bold" lengthAdjust="spacing" textLength="87" x="425" y="441.8433">[&#26412;&#22320;&#22534;&#32531;&#23384;&#21629;&#20013;]</text><polygon fill="#181818" points="581,463.8984,591,467.8984,581,471.8984,585,467.8984" style="stroke:#181818;stroke-width:1.0;"/><line style="stroke:#181818;stroke-width:1.0;stroke-dasharray:2.0,2.0;" x1="391" x2="587" y1="467.8984" y2="467.8984"/><text fill="#000000" font-family="sans-serif" font-size="13" lengthAdjust="spacing" textLength="78" x="398" y="462.8325">&#36820;&#22238;&#32531;&#23384;&#25968;&#25454;</text><polygon fill="#181818" points="730,493.0313,740,497.0313,730,501.0313,734,497.0313" style="stroke:#181818;stroke-width:1.0;"/><line style="stroke:#181818;stroke-width:1.0;" x1="593" x2="736" y1="497.0313" y2="497.0313"/><text fill="#000000" font-family="sans-serif" font-size="13" lengthAdjust="spacing" textLength="125" x="600" y="491.9653">&#24322;&#27493;&#20889;&#20837;&#20027;Redis&#38598;&#32676;</text><line style="stroke:#000000;stroke-width:1.0;stroke-dasharray:2.0,2.0;" x1="346" x2="799.5" y1="506.0313" y2="506.0313"/><text fill="#000000" font-family="sans-serif" font-size="11" font-weight="bold" lengthAdjust="spacing" textLength="98" x="351" y="516.2417">[&#26412;&#22320;&#22534;&#32531;&#23384;&#26410;&#21629;&#20013;]</text><polygon fill="#181818" points="489,536.9688,479,540.9688,489,544.9688,485,540.9688" style="stroke:#181818;stroke-width:1.0;"/><line style="stroke:#181818;stroke-width:1.0;" x1="483" x2="592" y1="540.9688" y2="540.9688"/><text fill="#000000" font-family="sans-serif" font-size="13" lengthAdjust="spacing" textLength="91" x="495" y="535.9028">&#35835;&#21462;&#20998;&#24067;&#24335;&#32531;&#23384;</text><polygon fill="#181818" points="581,566.1016,591,570.1016,581,574.1016,585,570.1016" style="stroke:#181818;stroke-width:1.0;"/><line style="stroke:#181818;stroke-width:1.0;stroke-dasharray:2.0,2.0;" x1="478" x2="587" y1="570.1016" y2="570.1016"/><text fill="#000000" font-family="sans-serif" font-size="13" lengthAdjust="spacing" textLength="78" x="485" y="565.0356">&#36820;&#22238;&#32531;&#23384;&#25968;&#25454;</text><polygon fill="#181818" points="402,595.2344,392,599.2344,402,603.2344,398,599.2344" style="stroke:#181818;stroke-width:1.0;"/><line style="stroke:#181818;stroke-width:1.0;" x1="396" x2="592" y1="599.2344" y2="599.2344"/><text fill="#000000" font-family="sans-serif" font-size="13" lengthAdjust="spacing" textLength="91" x="408" y="594.1685">&#20889;&#20837;&#26412;&#22320;&#22534;&#32531;&#23384;</text><polygon fill="#181818" points="730,624.3672,740,628.3672,730,632.3672,734,628.3672" style="stroke:#181818;stroke-width:1.0;"/><line style="stroke:#181818;stroke-width:1.0;" x1="593" x2="736" y1="628.3672" y2="628.3672"/><text fill="#000000" font-family="sans-serif" font-size="13" lengthAdjust="spacing" textLength="125" x="600" y="623.3013">&#24322;&#27493;&#20889;&#20837;&#20027;Redis&#38598;&#32676;</text><path d="M396,662.3672 L396,702.3672 L586,702.3672 L586,672.3672 L576,662.3672 L396,662.3672 " fill="#FEFFDD" style="stroke:#181818;stroke-width:0.5;"/><path d="M576,662.3672 L576,672.3672 L586,672.3672 L576,662.3672 " fill="#FEFFDD" style="stroke:#181818;stroke-width:0.5;"/><text fill="#000000" font-family="sans-serif" font-size="13" lengthAdjust="spacing" textLength="169" x="402" y="679.4341">&#20351;&#29992;&#26412;&#22320;&#32531;&#23384;&#25552;&#21319;&#25972;&#20307;&#21534;&#21520;&#37327;</text><text fill="#000000" font-family="sans-serif" font-size="13" lengthAdjust="spacing" textLength="78" x="402" y="694.5669">&#20943;&#23569;&#21518;&#31471;&#21387;&#21147;</text><path d="M483,712.6328 L483,752.6328 L686,752.6328 L686,722.6328 L676,712.6328 L483,712.6328 " fill="#FEFFDD" style="stroke:#181818;stroke-width:0.5;"/><path d="M676,712.6328 L676,722.6328 L686,722.6328 L676,712.6328 " fill="#FEFFDD" style="stroke:#181818;stroke-width:0.5;"/><text fill="#000000" font-family="sans-serif" font-size="13" lengthAdjust="spacing" textLength="182" x="489" y="729.6997">&#20351;&#29992;&#20998;&#24067;&#24335;&#32531;&#23384;&#20943;&#23569;&#35775;&#38382;&#22238;&#28304;&#29575;</text><text fill="#000000" font-family="sans-serif" font-size="13" lengthAdjust="spacing" textLength="143" x="489" y="744.8325">&#22686;&#21152;&#31995;&#32479;&#30340;&#24182;&#21457;&#22788;&#29702;&#33021;&#21147;</text><path d="M747,762.8984 L747,802.8984 L976,802.8984 L976,772.8984 L966,762.8984 L747,762.8984 " fill="#FEFFDD" style="stroke:#181818;stroke-width:0.5;"/><path d="M966,762.8984 L966,772.8984 L976,772.8984 L966,762.8984 " fill="#FEFFDD" style="stroke:#181818;stroke-width:0.5;"/><text fill="#000000" font-family="sans-serif" font-size="13" lengthAdjust="spacing" textLength="151" x="753" y="779.9653">&#20351;&#29992;&#20027;Redis&#38598;&#32676;&#24322;&#27493;&#20889;&#20837;</text><text fill="#000000" font-family="sans-serif" font-size="13" lengthAdjust="spacing" textLength="208" x="753" y="795.0981">&#36991;&#20813;&#25968;&#25454;&#20889;&#20837;&#24310;&#36831;&#23545;&#21709;&#24212;&#26102;&#38388;&#30340;&#24433;&#21709;</text></g></svg>