<?xml version="1.0" encoding="us-ascii" standalone="no"?><svg xmlns="http://www.w3.org/2000/svg" xmlns:xlink="http://www.w3.org/1999/xlink" contentStyleType="text/css" height="329px" preserveAspectRatio="none" style="width:309px;height:329px;background:#FFFFFF;" version="1.1" viewBox="0 0 309 329" width="309px" zoomAndPan="magnify"><defs/><g><rect fill="none" height="75.3984" style="stroke:#000000;stroke-width:1.5;" width="212" x="91.5" y="127.4297"/><line style="stroke:#181818;stroke-width:0.5;stroke-dasharray:5.0,5.0;" x1="27" x2="27" y1="81.2969" y2="248.9609"/><line style="stroke:#181818;stroke-width:0.5;stroke-dasharray:5.0,5.0;" x1="129.5" x2="129.5" y1="81.2969" y2="248.9609"/><line style="stroke:#181818;stroke-width:0.5;stroke-dasharray:5.0,5.0;" x1="257.5" x2="257.5" y1="81.2969" y2="248.9609"/><text fill="#000000" font-family="sans-serif" font-size="14" lengthAdjust="spacing" textLength="39" x="5" y="77.9951">Client</text><ellipse cx="27.5" cy="13.5" fill="#E2E2F0" rx="8" ry="8" style="stroke:#181818;stroke-width:0.5;"/><path d="M27.5,21.5 L27.5,48.5 M14.5,29.5 L40.5,29.5 M27.5,48.5 L14.5,63.5 M27.5,48.5 L40.5,63.5 " fill="none" style="stroke:#181818;stroke-width:0.5;"/><text fill="#000000" font-family="sans-serif" font-size="14" lengthAdjust="spacing" textLength="39" x="5" y="260.9561">Client</text><ellipse cx="27.5" cy="272.7578" fill="#E2E2F0" rx="8" ry="8" style="stroke:#181818;stroke-width:0.5;"/><path d="M27.5,280.7578 L27.5,307.7578 M14.5,288.7578 L40.5,288.7578 M27.5,307.7578 L14.5,322.7578 M27.5,307.7578 L40.5,322.7578 " fill="none" style="stroke:#181818;stroke-width:0.5;"/><rect fill="#E2E2F0" height="30.2969" rx="2.5" ry="2.5" style="stroke:#181818;stroke-width:0.5;" width="56" x="101.5" y="50"/><text fill="#000000" font-family="sans-serif" font-size="14" lengthAdjust="spacing" textLength="42" x="108.5" y="69.9951">cache</text><rect fill="#E2E2F0" height="30.2969" rx="2.5" ry="2.5" style="stroke:#181818;stroke-width:0.5;" width="56" x="101.5" y="247.9609"/><text fill="#000000" font-family="sans-serif" font-size="14" lengthAdjust="spacing" textLength="42" x="108.5" y="267.9561">cache</text><text fill="#000000" font-family="sans-serif" font-size="14" lengthAdjust="spacing" textLength="66" x="221.5" y="77.9951">Database</text><path d="M239.5,29 C239.5,19 257.5,19 257.5,19 C257.5,19 275.5,19 275.5,29 L275.5,55 C275.5,65 257.5,65 257.5,65 C257.5,65 239.5,65 239.5,55 L239.5,29 " fill="#E2E2F0" style="stroke:#181818;stroke-width:1.5;"/><path d="M239.5,29 C239.5,39 257.5,39 257.5,39 C257.5,39 275.5,39 275.5,29 " fill="none" style="stroke:#181818;stroke-width:1.5;"/><text fill="#000000" font-family="sans-serif" font-size="14" lengthAdjust="spacing" textLength="66" x="221.5" y="260.9561">Database</text><path d="M239.5,274.2578 C239.5,264.2578 257.5,264.2578 257.5,264.2578 C257.5,264.2578 275.5,264.2578 275.5,274.2578 L275.5,300.2578 C275.5,310.2578 257.5,310.2578 257.5,310.2578 C257.5,310.2578 239.5,310.2578 239.5,300.2578 L239.5,274.2578 " fill="#E2E2F0" style="stroke:#181818;stroke-width:1.5;"/><path d="M239.5,274.2578 C239.5,284.2578 257.5,284.2578 257.5,284.2578 C257.5,284.2578 275.5,284.2578 275.5,274.2578 " fill="none" style="stroke:#181818;stroke-width:1.5;"/><polygon fill="#181818" points="117.5,108.4297,127.5,112.4297,117.5,116.4297,121.5,112.4297" style="stroke:#181818;stroke-width:1.0;"/><line style="stroke:#181818;stroke-width:1.0;" x1="27.5" x2="123.5" y1="112.4297" y2="112.4297"/><text fill="#000000" font-family="sans-serif" font-size="13" lengthAdjust="spacing" textLength="53" x="34.5" y="107.3638">Get &#25968;&#25454;</text><path d="M91.5,127.4297 L155.5,127.4297 L155.5,134.5625 L145.5,144.5625 L91.5,144.5625 L91.5,127.4297 " fill="#EEEEEE" style="stroke:#000000;stroke-width:1.5;"/><rect fill="none" height="75.3984" style="stroke:#000000;stroke-width:1.5;" width="212" x="91.5" y="127.4297"/><text fill="#000000" font-family="sans-serif" font-size="13" font-weight="bold" lengthAdjust="spacing" textLength="19" x="106.5" y="140.4966">alt</text><text fill="#000000" font-family="sans-serif" font-size="11" font-weight="bold" lengthAdjust="spacing" textLength="98" x="170.5" y="139.6401">[&#32531;&#23384;&#25968;&#25454;&#21363;&#23558;&#36807;&#26399;]</text><polygon fill="#181818" points="245.5,161.6953,255.5,165.6953,245.5,169.6953,249.5,165.6953" style="stroke:#181818;stroke-width:1.0;"/><line style="stroke:#181818;stroke-width:1.0;" x1="129.5" x2="251.5" y1="165.6953" y2="165.6953"/><text fill="#000000" font-family="sans-serif" font-size="13" lengthAdjust="spacing" textLength="104" x="136.5" y="160.6294">&#20174;&#25968;&#25454;&#24211;&#21047;&#26032;&#25968;&#25454;</text><polygon fill="#181818" points="140.5,190.8281,130.5,194.8281,140.5,198.8281,136.5,194.8281" style="stroke:#181818;stroke-width:1.0;"/><line style="stroke:#181818;stroke-width:1.0;" x1="134.5" x2="256.5" y1="194.8281" y2="194.8281"/><text fill="#000000" font-family="sans-serif" font-size="13" lengthAdjust="spacing" textLength="91" x="146.5" y="189.7622">&#36820;&#22238;&#25968;&#25454;&#24211;&#25968;&#25454;</text><polygon fill="#181818" points="38.5,226.9609,28.5,230.9609,38.5,234.9609,34.5,230.9609" style="stroke:#181818;stroke-width:1.0;"/><line style="stroke:#181818;stroke-width:1.0;" x1="32.5" x2="128.5" y1="230.9609" y2="230.9609"/><text fill="#000000" font-family="sans-serif" font-size="13" lengthAdjust="spacing" textLength="78" x="44.5" y="225.895">&#36820;&#22238;&#32531;&#23384;&#25968;&#25454;</text></g></svg>